<?xml version="1.0" encoding="UTF-8"?>
<svg width="22px" height="24px" viewBox="0 0 22 24" version="1.1" xmlns="http://www.w3.org/2000/svg" xmlns:xlink="http://www.w3.org/1999/xlink">
    <!-- Generator: Sketch 49 (51002) - http://www.bohemiancoding.com/sketch -->
    <title>Archimed-iconFilterMen</title>
    <desc>Created with Sketch.</desc>
    <defs/>
    <g id="Desktop" stroke="none" stroke-width="1" fill="none" fill-rule="evenodd">
        <g id="ArchiMed_COMP_1" transform="translate(-311.000000, -314.000000)" fill="#2A2A2A" fill-rule="nonzero">
            <g id="Group-14" transform="translate(252.000000, 302.000000)">
                <g id="Group-10" transform="translate(46.000000, 0.000000)">
                    <g id="Archimed-iconFilterMen" transform="translate(13.000000, 12.000000)">
                        <path d="M16.3293958,22.2630214 C18.3732957,20.7704446 19.7561001,18.4450561 19.9524254,15.7985995 C21.0200408,15.4816852 21.8,14.5030809 21.8,13.3482892 C21.8,12.600785 21.4593329,11.8922872 20.8882326,11.4106343 L20.8882326,6.15490375 C20.8882326,4.71399773 20.1482371,3.36620045 18.9354581,2.55851497 C18.5299656,1.05621188 17.1635987,0 15.5587855,0 L8.26464654,0 C4.32046934,0 1.11176736,3.16438039 1.11176736,7.05407694 L1.11176736,11.4106343 C0.540667107,11.8922872 0.2,12.6006837 0.2,13.3482892 C0.2,14.5030809 0.979959192,15.4816852 2.04757457,15.7985995 C2.24389991,18.4450561 3.62660154,20.7704446 5.67060418,22.2630214 C6.26147942,22.6867726 6.78137142,22.9903475 7.23028018,23.1737461 C8.1975281,23.6500467 9.78852862,24 11.0000514,24 C12.1888137,24 13.7426749,23.6333257 14.8268032,23.1879936 C15.5552944,22.8053644 16.0561586,22.4970404 16.3293958,22.2630214 Z M3.56454999,15.1466356 C3.56454999,14.7269877 3.21956804,14.3867709 2.79404236,14.3867709 C2.21338781,14.3867709 1.74101526,13.9209232 1.74101526,13.3482892 C1.74101526,12.9797042 1.93867615,12.6461743 2.26978897,12.4561068 C2.28684287,12.4462792 2.30235576,12.4347293 2.31848505,12.4237872 C2.46508697,12.3503336 2.62771544,12.3098075 2.79404236,12.3098075 L3.96038544,12.3098075 C4.68568996,12.3098075 5.32706051,11.8538887 5.55636358,11.1753802 L6.08719198,9.60499326 C7.89860405,9.56558161 13.6073465,9.31553548 16.8151238,7.73369989 C17.1957546,7.54606398 17.3500616,7.0896386 17.1596948,6.71426546 C16.9694308,6.33889232 16.5067153,6.18671675 16.1259818,6.37445398 C12.6853057,8.07097848 5.60043662,8.09255864 5.52924172,8.09255864 C5.19761523,8.09265995 4.90317858,8.30187602 4.79838954,8.61210344 L4.09445377,10.6948418 C4.07513971,10.751781 4.02140965,10.7900782 3.96038544,10.7900782 L2.79404236,10.7900782 C2.74688729,10.7900782 2.69983496,10.7921045 2.65278263,10.7946374 L2.65278263,7.05407694 C2.65278263,4.00246046 5.17028789,1.51972932 8.26464654,1.51972932 L15.5587855,1.51972932 C16.5253102,1.51972932 17.3374253,2.20664698 17.4897803,3.15303308 C17.5266619,3.38200563 17.6675107,3.5819007 17.8722603,3.69577908 C18.781973,4.20174763 19.3470119,5.14397981 19.3470119,6.15490375 L19.3470119,11.7993811 C19.3470119,12.0698929 19.4928947,12.3200404 19.7300056,12.4561068 C20.0611184,12.6461743 20.2587793,12.9797042 20.2587793,13.3482892 C20.2587793,13.9209232 19.7864067,14.3867709 19.2057522,14.3867709 C18.7802265,14.3867709 18.4352445,14.7269877 18.4352445,15.1466356 C18.4352445,19.1899261 15.0997684,22.4793296 10.9998459,22.4793296 C6.89992342,22.4793296 3.56454999,19.1898248 3.56454999,15.1466356 Z M13.3089032,18.1684619 C12.9784068,17.9060935 12.4931924,17.955652 12.2251585,18.2790385 C11.8974359,18.674501 11.4623559,18.8922366 11.0000514,18.8922366 C10.5377468,18.8922366 10.1026668,18.674501 9.77494423,18.2790385 C9.50701305,17.955652 9.02169597,17.9061941 8.69119957,18.1684619 C8.36070316,18.4307297 8.31015786,18.9055058 8.57819178,19.2288923 C9.19500882,19.9730734 10.0777024,20.4 10.9999486,20.4 C11.9221949,20.4 12.8048884,19.9730734 13.421911,19.2288923 C13.6899449,18.9054052 13.6393996,18.4307297 13.3089032,18.1684619 Z M7.83450738,12 C7.4089817,12 7.06399975,12.3375581 7.06399975,12.7539267 L7.06399975,13.6460733 C7.06399975,14.0624419 7.4089817,14.4 7.83450738,14.4 C8.26003306,14.4 8.60501501,14.0624419 8.60501501,13.6460733 L8.60501501,12.7539267 C8.60501501,12.3376586 8.26003306,12 7.83450738,12 Z M14.1705076,12 C13.744982,12 13.4,12.3375581 13.4,12.7539267 L13.4,13.6460733 C13.4,14.0624419 13.744982,14.4 14.1705076,14.4 C14.5960333,14.4 14.9410153,14.0624419 14.9410153,13.6460733 L14.9410153,12.7539267 C14.9410153,12.3376586 14.5960333,12 14.1705076,12 Z" id="Combined-Shape"/>
                    </g>
                </g>
            </g>
        </g>
    </g>
</svg>