<?xml version="1.0" encoding="UTF-8"?>
<svg width="18px" height="20px" viewBox="0 0 18 20" version="1.1" xmlns="http://www.w3.org/2000/svg" xmlns:xlink="http://www.w3.org/1999/xlink">
    <!-- Generator: Sketch 49 (51002) - http://www.bohemiancoding.com/sketch -->
    <title>Price-iconFilterWomen</title>
    <desc>Created with Sketch.</desc>
    <defs/>
    <g id="Price" stroke="none" stroke-width="1" fill="none" fill-rule="evenodd">
        <g id="ArchiMed_Price-0" transform="translate(-398.000000, -173.000000)" fill="#2A2A2A" fill-rule="nonzero">
            <g id="Group-10" transform="translate(68.000000, 159.000000)">
                <g id="Group-7" transform="translate(315.000000, 0.000000)">
                    <g id="Price-iconFilterWomen" transform="translate(15.000000, 14.000000)">
                        <path d="M8.97401103,20 C6.21338864,20 4.48960406,18.7800458 4.52776086,18.7569427 C1.15276736,18.0695641 0.45473775,17.8318484 0.384810911,17.802866 C0.128112269,17.6964594 -0.0297062905,17.4294077 0.00468395821,17.1510943 C0.0118895341,17.0926328 0.366213656,13.7501393 0.366213656,8.70522248 C0.366213656,3.90516511 4.22766542,0 8.97401103,0 C13.7203566,0 17.5818084,3.9050823 17.5818084,8.70505687 C17.5818084,13.7523751 17.9923967,17.0924671 17.9996023,17.1509287 C18.0339925,17.4292421 17.8905368,17.6819413 17.6294851,17.8027004 C17.545166,17.8417053 15.6748822,18.8542419 13.6275208,18.7744141 C13.2996213,19.0730434 11.7346334,20 8.97401103,20 Z M8.97401103,18.75 C9.89408573,18.7601471 11.7097226,18.5761007 12.7737732,17.7062988 C13.8078553,16.8610078 14.1572363,15.7500045 14.4495535,14.4472063 C14.5469106,14.0128851 14.5994558,13.5645695 14.5994558,13.1146805 C14.5994558,10.632549 13.4917434,10.2342486 10.792682,9.69236144 C9.32683861,9.39798353 7.68879831,9.06907523 6.25660821,8.13658871 C5.64667259,9.09068778 4.29595463,10.7960095 2.43372266,10.7960095 C1.97092817,10.7960095 1.59443682,11.1767548 1.59443682,11.6447784 C1.59443682,12.112802 1.97092817,12.4935473 2.43372266,12.4935473 C2.77287601,12.4935473 3.34945581,12.7716123 3.34945581,13.1145977 C3.34945581,13.5644039 3.40216325,14.0128023 3.49960229,14.4471235 C3.79200129,15.7499217 4.12368779,16.8506318 5.15776982,17.6959229 C6.22182049,18.5657247 8.05393633,18.7398529 8.97401103,18.75 Z M1.59435494,8.70513967 C1.59435494,9.04688302 1.59107968,9.39218706 1.58510233,9.73889882 C1.84417554,9.62040239 2.13133411,9.5539086 2.43364078,9.5539086 C3.32197365,9.5539086 4.09599989,8.88052432 4.58884491,8.31561684 C5.17077705,7.64860868 5.5148433,6.96363146 5.51828232,6.9567585 C5.60163774,6.78948892 5.75524751,6.66883952 5.93612385,6.62892668 C6.11700018,6.58893103 6.30631031,6.63331544 6.45083124,6.75032134 C7.77248125,7.81952176 9.42943618,8.15223918 11.031858,8.4739433 C13.5374333,8.97699415 15.8294363,9.49718599 15.8294363,13.1145977 C15.8294363,13.6568162 15.7668032,14.4156485 15.6491394,14.9400635 C15.4127468,15.9934841 15.2414868,16.7638054 14.5802008,17.6080942 C15.6163558,17.5053415 16.1543884,17.1439819 16.7295828,16.8117523 C16.5570583,15.2818981 16.3535852,12.9688579 16.3535852,8.70513967 C16.3535852,4.59005952 13.0431144,1.24218367 8.97401103,1.24218367 C4.90490767,1.24218367 1.59443682,4.58997671 1.59435494,8.70513967 Z M1.21488904,16.8117523 C1.89483338,17.0454329 2.54841192,17.4413548 3.49105737,17.5809326 C2.85272961,16.7492208 2.53053108,15.7519849 2.29940698,14.7220419 C2.22030941,14.3696992 2.16569696,14.0099868 2.13949487,13.647459 C1.99595652,13.603737 1.559064,13.5434538 1.43042809,13.4709151 C1.26830263,16.0821423 1.32354585,15.8480477 1.21488904,16.8117523 Z M10.8149261,15.1403849 C10.5514649,14.9217446 10.1646675,14.9630433 9.95099936,15.2325321 C9.68974936,15.5620842 9.34291746,15.7435305 8.97438298,15.7435305 C8.6058485,15.7435305 8.2590166,15.5620842 7.9977666,15.2325321 C7.78418039,14.9630433 7.39730108,14.9218284 7.13383988,15.1403849 C6.87037867,15.3589414 6.83008557,15.7545881 7.04375367,16.0240769 C7.53554246,16.6443116 8.23927953,17 8.97446488,17 C9.70965022,17 10.4131416,16.6443116 10.9050123,16.0240769 C11.1186804,15.7546719 11.0783873,15.3589414 10.8149261,15.1403849 Z M6.38422412,11.0047185 C6.0450086,11.0047185 5.76999998,11.286017 5.76999998,11.6329908 L5.76999998,12.3764463 C5.76999998,12.7234201 6.0450086,13.0047185 6.38422412,13.0047185 C6.72343964,13.0047185 6.99844826,12.7234201 6.99844826,12.3764463 L6.99844826,11.6329908 C6.99844826,11.2859332 6.72343964,11.0047185 6.38422412,11.0047185 Z M11.6142241,11.0047185 C11.2750086,11.0047185 11,11.286017 11,11.6329908 L11,12.3764463 C11,12.7234201 11.2750086,13.0047185 11.6142241,13.0047185 C11.9534397,13.0047185 12.2284483,12.7234201 12.2284483,12.3764463 L12.2284483,11.6329908 C12.2284483,11.2861007 11.9534397,11.0047185 11.6142241,11.0047185 Z" id="iconFilterWomen"/>
                    </g>
                </g>
            </g>
        </g>
    </g>
</svg>