<?xml version="1.0" encoding="iso-8859-1"?>
<!-- Generator: Adobe Illustrator 19.0.0, SVG Export Plug-In . SVG Version: 6.00 Build 0)  -->
<svg version="1.1" id="Capa_1" xmlns="http://www.w3.org/2000/svg" xmlns:xlink="http://www.w3.org/1999/xlink" x="0px" y="0px"
	 viewBox="0 0 510.3 510.3" style="enable-background:new 0 0 510.3 510.3;" xml:space="preserve">
<g>
	<path style="fill:#EDB288;" d="M57.7,143.103v42.9C57.7,186.003,0.9,168.003,57.7,143.103z"/>
	<path style="fill:#EDB288;" d="M271.6,186.003c0,0,56.8-18,0-42.9V186.003"/>
</g>
<path style="fill:#D4E1F4;" d="M317.1,479.103h-152v-133.7l36.6-35h51.2c7.6-0.1,15.2,1.1,22.5,3.7l7.3,3.1
	c-12,18.9-18.3,40.8-18.3,63.2C264.4,420.003,284.2,457.003,317.1,479.103z M246.6,391.903c0.1-6.4-2.4-12.6-6.8-17.2
	c-4.7-4.7-11.1-7.3-17.8-7.3c-13.6,0.1-24.4,11.2-24.3,24.8c0.1,6.4,2.6,12.5,7.1,17c9.5,9.7,25.1,9.8,34.7,0.3
	c0.1-0.1,0.2-0.2,0.3-0.3C244.2,404.503,246.7,398.303,246.6,391.903z"/>
<path style="fill:#4B5D63;" d="M292.6,82.603H147.9c-18.7-1.1-33.2-16.8-32.9-35.5c0-5.2,1.1-10.4,3.1-15.2c1.8-3.4,4.1-6.6,6.8-9.4
	c6.5-6.9,15.6-10.7,25.1-10.4h72c38.7-0.3,70.2,30.8,70.5,69.5C292.6,81.903,292.6,82.203,292.6,82.603z"/>
<path style="fill:#F7CAA5;" d="M268,82.603v103.4c-0.1,43.1-27,81.6-67.4,96.7c-11.5,4.4-23.7,6.7-36,6.8c-11.2,0-22.3-2-32.9-5.7
	c-15.2-4.7-29.1-13.2-40.2-24.6c-19.5-19.3-30.6-45.6-30.8-73.1v-62.2c0,0,49.6,8.4,87.2-41.3L268,82.603L268,82.603z"/>
<path style="fill:#00EFD1;" d="M239.8,374.603c9.2,9.7,9.2,24.8,0,34.5c-9.5,9.7-25.1,9.8-34.7,0.3c-0.1-0.1-0.2-0.2-0.3-0.3
	c-9.5-9.7-9.4-25.2,0.2-34.7c4.5-4.5,10.6-7,17-7.1C228.7,367.303,235.1,369.903,239.8,374.603z"/>
<path style="fill:#EDB288;" d="M201.7,309.303v1l-36.6,35l-34-35v-26.6c10.6,3.8,21.7,5.7,32.9,5.7c12.3-0.1,24.5-2.4,36-6.8l1,2.6
	L201.7,309.303z"/>
<path style="fill:#D4E1F4;" d="M84.6,310.403h46.5l34,35v134.3H9.9v-98.7c0-39,31.6-70.5,70.5-70.5h4.2V310.403z"/>
<path style="fill:#4B5D63;" d="M147.9,82.003L147.9,82.003c-37.6,49.6-87.2,41.3-87.2,41.3v-40.7c0,0,7.3-51.7,57.5-50.7
	c-2.1,4.8-3.2,9.9-3.1,15.2C114.9,65.603,129.3,80.903,147.9,82.003z"/>
<g>
	<path style="fill:#083863;" d="M120.2,179.203c-6.8-0.1-13.3-2.7-18.3-7.3c-4.7-4.7-7.3-11.1-7.3-17.8v-4.7c0-4.3,3.5-7.8,7.8-7.8
		s7.8,3.5,7.8,7.8v4.7c0.1,2.6,1.2,5.1,3.1,6.8s4.3,2.6,6.8,2.6c5.3,0,9.6-4.1,9.9-9.4v-4.7c0-4.3,3.5-7.8,7.8-7.8s7.8,3.5,7.8,7.8
		v4.7c0,13.8-11.2,25.1-25.1,25.1C120.5,179.203,120.3,179.203,120.2,179.203z"/>
	<path style="fill:#083863;" d="M208.5,179.203c-6.8-0.1-13.3-2.7-18.3-7.3c-4.7-4.7-7.3-11.1-7.3-17.8v-4.7c0-4.3,3.5-7.8,7.8-7.8
		s7.8,3.5,7.8,7.8v4.7c0.1,2.6,1.2,5.1,3.1,6.8c1.9,1.7,4.3,2.6,6.8,2.6c5.3,0,9.6-4.1,9.9-9.4v-4.7c0-4.3,3.5-7.8,7.8-7.8
		s7.8,3.5,7.8,7.8v4.7c0,13.8-11.2,25.1-25.1,25.1C208.8,179.203,208.6,179.203,208.5,179.203z"/>
	<path style="fill:#083863;" d="M510.3,378.503c0-70.3-57-127.3-127.3-127.3c-43.6,0-82.1,22-105.1,55.5c-8.3-2.7-16.9-4.1-25.6-4.2
		H209v-15.2c37.4-17.1,62.8-53,66.4-94c0,0.3,0.2,0.5,0.5,0.5c15.9,0,28.7-12.9,28.7-28.7c-0.1-7.6-3.1-14.9-8.4-20.4
		c-5.1-5.3-12-8.3-19.3-8.4v-48h15.7c4.2,0,7.8-2.1,7.8-6.8c-0.3-42.7-35.1-77.1-77.8-76.8c-0.2,0-0.4,0-0.5,0H150
		c-11.4-0.2-22.4,4.3-30.3,12.5c-2.5,2.1-4.6,4.5-6.3,7.3c-41.3,2.1-58,37.6-60.6,56.9v54.9c-7.5,0-14.6,3-19.9,8.4
		c-5.5,5.3-8.5,12.7-8.4,20.4c0,15.9,12.9,28.7,28.7,28.7h0.5c2.1,27,14,52.2,33.4,71.1c10.6,11,23.7,19.4,38.1,24.6v13H80.5
		c-43.4,0-80.5,35-80.5,78.4v98.7c0,4.2,5.7,5.7,9.9,5.7h304c3.8,2.4,7.6,4.7,11.7,6.7c16.8,9.7,35.2,13.2,54.1,13.6
		c0.1,0,0.2,0,0.2,0c0.9,0,1.8,0,2.7,0c0.2,0,0.3,0,0.5,0c0.1,0,0.1,0,0.2,0s0.2,0,0.3,0c0.1,0,0.2,0,0.3,0
		C453.7,505.303,510.3,448.503,510.3,378.503z M52.2,178.203c-6.9,0-12.5-5.6-12.5-12.5c0-0.2,0-0.4,0-0.5c0-3.3,1.3-6.5,3.7-8.9
		c2.2-2.6,5.5-4.1,8.9-4.2v26.1H52.2z M222,375.103c8.9-0.3,16.4,6.7,16.7,15.7c0,0.4,0,0.7,0,1.1c0,4.3-1.7,8.4-4.7,11.5
		c-6.6,6.2-16.9,6.2-23.5,0c-3-3.1-4.7-7.2-4.7-11.5c-0.3-8.9,6.7-16.4,15.7-16.7C221.7,375.103,221.9,375.103,222,375.103z
		 M285.5,156.003c2.3,2.5,3.6,5.8,3.4,9.1c0,6.8-5.2,12.5-12,13.1v-26.1C280.2,152.103,283.3,153.603,285.5,156.003z M125.4,35.503
		c1.4-2.5,3.2-4.8,5.2-6.8c5-5.3,12-8.3,19.3-8.4H222c31.9,0,58.5,20.9,62.2,52.2l-135.3,1h-0.5c-14.3-0.6-25.6-12.3-25.6-26.6
		C122.5,43.003,123.4,39.103,125.4,35.503z M67.9,83.103c0-4.7,7.3-37.1,39.2-42.3c-0.4,2.1-0.6,4.2-0.5,6.3
		c-0.2,17.4,10.4,33.2,26.6,39.6c-24.5,26.7-49.6,29.8-65.3,29.8V83.103z M96.7,253.403c-18.3-17.6-28.7-42-28.7-67.4v-53.8h0.5
		c17.2-0.5,53.3-7.3,83.1-43.9h109.7v97.7c-0.4,53.1-43.7,95.8-96.8,95.5c-10.3-0.1-20.4-1.8-30.2-5.1
		C120.2,271.603,107.3,263.803,96.7,253.403z M156.7,469.703h-141v-88.8c0-33.4,26.1-60.6,62.7-62.7v21.9c-7.8,0.9-14.9,4.8-19.9,11
		c-7.4,7.3-11.5,17.3-11.5,27.7v44.4c0,4.2,2.1,9.9,6.3,9.9h13.1c4.3,0,7.8-3.5,7.8-7.8s-3.5-7.8-7.8-7.8h-3.7v-38.7
		c-0.3-6.2,2-12.3,6.3-16.7c4.5-4.3,10.5-6.7,16.7-6.8c13-0.3,23.7,10,24,23c0,0.2,0,0.4,0,0.5v38.7h-8.9c-4.3,0-7.8,3.5-7.8,7.8
		s3.5,7.8,7.8,7.8H117c4.2,0,8.4-5.7,8.4-9.9v-44.4c-1-18.3-13.6-33.9-31.3-38.7v-21.9h34l28.7,30.8v120.7H156.7z M141.1,307.203
		v-13.1c7.8,2.3,15.9,3.3,24,3.1c9.5-0.1,19-1.6,28.2-4.2v14.1l-27.2,27.2L141.1,307.203z M172.4,469.703v-120.7l32.4-30.8h9.4v42.3
		c-14.7,3.1-25.1,16.3-24.6,31.3c0.2,8.7,3.7,16.9,9.9,23c6,5.9,14,9.3,22.5,9.4c8.6-0.1,16.8-3.5,23-9.4c12.5-12.8,12.5-33.2,0-46
		c-4.3-4-9.5-6.8-15.2-8.4v-42.3h22.5c5.9,0,11.7,0.8,17.4,2.2c-8.9,17.4-14,37.1-14,58.1c0,35.8,14.8,68.1,38.5,91.2H172.4V469.703
		z"/>
</g>
<path style="fill:#00EFD1;" d="M462.5,352.903c6.1-0.3,11.2,4.4,11.5,10.4c0,0.2,0,0.4,0,0.5c0,6.3-5.1,11.5-11.5,11.5
	c-6.3,0-11.5-5.1-11.5-11.5c0-6.1,4.9-11,11-11C462.2,352.903,462.3,352.903,462.5,352.903z"/>
<path style="fill:#00ACEA;" d="M342.3,354.403c-1.7,6.5-1.2,13.5,1.5,19.7l21.6,32.5v3.9c-0.3,7.6,5.7,14,13.3,14.3
	c0.2,0,0.3,0,0.5,0h3.4c7.9,0,14.3-6.4,14.3-14.3l0,0v-4l21.2-32.5c6.6-14.9-0.1-32.3-15-39c-2.7-1.2-5.7-2-8.6-2.4h-27.1
	C355.3,334.103,345.4,342.703,342.3,354.403z M382.6,265.803c62.2-0.2,112.8,50.1,113.1,112.3c0.2,62.2-50.1,112.8-112.3,113.1
	c-62.2,0.2-112.8-50.1-113.1-112.3c-0.1-21.4,5.9-42.3,17.3-60.4C308.1,285.803,344,265.903,382.6,265.803L382.6,265.803z
	 M468.7,364.703c0-6-4.8-10.8-10.8-10.8s-10.8,4.8-10.8,10.8l0,0c0,6,4.8,10.8,10.8,10.8C463.9,375.503,468.7,370.703,468.7,364.703
	z M317.7,364.703c0-5.7-4.6-10.3-10.3-10.3c-5.7-0.3-10.5,4.1-10.8,9.8c0,0.2,0,0.3,0,0.5c0,6,4.8,10.8,10.8,10.8
	c5.7,0,10.3-4.6,10.3-10.3C317.7,365.103,317.7,364.903,317.7,364.703z"/>
<g>
	<path style="fill:#00EFD1;" d="M395.1,329.903c17.2,2,29.5,17.5,27.6,34.7c-0.4,3.2-1.2,6.3-2.5,9.2l-22.5,34.5v4.2
		c0,8.4-6.8,15.2-15.2,15.2l0,0h-3.7c-8.1,0-14.6-6.5-14.6-14.6c0-0.2,0-0.4,0-0.5v-4.2l-23-34.5c-2.8-6.6-3.4-14-1.6-20.9
		c3.3-12.4,13.9-21.5,26.6-23L395.1,329.903L395.1,329.903z"/>
	<path style="fill:#00EFD1;" d="M302.6,352.903c6.1,0,11,4.9,11,11c0.3,6.1-4.4,11.2-10.4,11.5c-0.2,0-0.4,0-0.5,0
		c-6.3,0-11.5-5.1-11.5-11.5c0-6.1,4.9-11,11-11C302.3,352.903,302.5,352.903,302.6,352.903z"/>
</g>
<path style="fill:#083863;" d="M467.7,345.603c-1.4-4.7-3.9-9-7.3-12.5c-5.3-4.9-12.1-7.7-19.3-7.8c-7.8,0.1-15.2,3.5-20.4,9.4
	c-6.4-7.4-15.4-12.1-25.1-13.1h-29.8c-9.7,1-18.7,5.7-25.1,13.1l-1-1.6c-5.1-5.1-12.1-8-19.3-7.8c-13,0-24.1,9.2-26.6,21.9
	c-6.4,3.2-10.4,9.6-10.4,16.7c-0.2,10.7,8.2,19.5,18.9,19.8c10.7,0.2,19.5-8.2,19.8-18.9c0.2-7.8-4.4-14.9-11.5-18.1
	c3.2-5.5,10.2-7.3,15.7-4.1c0.9,0.6,1.8,1.2,2.6,2c2.1,2.1,3.2,4.9,3.1,7.8c-1.7,8-1,16.4,2.1,24c0,0.5-0.5,1,0,1.6l20.4,32.4v2.1
	c0,10.4,10.4,19.3,15.7,21.9v17.2c0,4.3,3.5,7.8,7.8,7.8s7.8-3.5,7.8-7.8v-16.7c10.4-2.6,20.9-11.5,20.9-22.5v-2.1l20.9-32.4
	c0-0.6,0.1-1.1,0.5-1.6c3.1-7.6,3.7-16.1,1.6-24c0.3-6.2,5.3-11.2,11.5-11.5c3.1,0.1,6.1,1.4,8.4,3.7c1.2,1,2,2.2,2.6,3.7
	c-5.4,3.4-8.8,9.3-8.9,15.7c0,10.7,8.7,19.3,19.3,19.3c10.7,0,19.3-8.7,19.3-19.3C481.5,355.403,475.9,348.003,467.7,345.603z
	 M302.6,367.503c-2,0-3.7-1.6-3.7-3.7c0.3-1.8,1.8-3.2,3.7-3.1c1.7,0,3.1,1.4,3.1,3.1C305.8,365.703,304.5,367.303,302.6,367.503z
	 M413.4,370.103l-21.9,33.4c-0.4,1.5-0.6,3.1-0.5,4.7v4.2c-0.3,4.4-3.9,7.8-8.4,7.8h-3.7c-4.4-0.2-8.1-3.5-8.9-7.8v-4.2
	c0-1.6,0.5-3.1-0.5-4.7l-21.9-33.4c-1.5-4.9-1.7-10.1-0.5-15.2c2.4-9.4,10.3-16.4,19.9-17.8h27.7c7,0.7,13.3,4.8,16.7,11
	C415.4,354.803,416.1,362.903,413.4,370.103z M462.5,367.503c-2,0-3.7-1.6-3.7-3.7s1.6-3.7,3.7-3.7c2,0,3.7,1.6,3.7,3.7
	S464.5,367.503,462.5,367.503L462.5,367.503L462.5,367.503z"/>
<g>
</g>
<g>
</g>
<g>
</g>
<g>
</g>
<g>
</g>
<g>
</g>
<g>
</g>
<g>
</g>
<g>
</g>
<g>
</g>
<g>
</g>
<g>
</g>
<g>
</g>
<g>
</g>
<g>
</g>
</svg>
