<svg id="Capa_1" enable-background="new 0 0 511.849 511.849" height="512" viewBox="0 0 511.849 511.849" width="512" xmlns="http://www.w3.org/2000/svg"><g><path d="m306.068 136.185c3.587-11.627 3.175-24.12-1.172-35.485l-2.051-5.362-.989-18.147c-1.107-20.314-13.846-38.162-32.697-45.813l-2.1-2.053c-11.068-10.819-26.345-16.205-41.751-14.722l-9.892.953-6.633-2.841c-13.207-5.656-28.154-5.656-41.361 0l-6.633 2.841-9.892-.953c-15.406-1.484-30.683 3.903-41.751 14.722l-2.1 2.053c-18.851 7.65-31.589 25.498-32.697 45.813l-.989 18.147c-9.032 11.631-10.697 27.375-4.296 40.637l1.296 2.685v57.559h233.982z" fill="#a79ba7"/><path d="m282.233 215.725c14.894 0 26.969-12.074 26.969-26.969 0-14.894-12.074-26.969-26.969-26.969h-54.023v55.146z" fill="#ffdfcf"/><path d="m93.974 215.725c-14.894 0-26.969-12.074-26.969-26.969 0-14.894 12.074-26.969 26.969-26.969h51.055v55.146z" fill="#ffcebf"/><path d="m238.303 346.134c-.8-.33-1.32-1.1-1.32-1.96v-84.98h-96.61v84.98c0 .86-.52 1.63-1.32 1.96l-18.19 35.209 66.411 45.573 68.829-65.431z" fill="#ffdfcf"/><path d="m160.853 299.739v2.173h-20.48v42.262c0 .86-.52 1.63-1.32 1.96l-18.19 35.209 29.802 20.451 13.467-26.067c.8-.33 1.32-1.1 1.32-1.96v-31.245c0-3.718 3.382-6.468 7.039-5.801 4.997.911 10.071 1.378 15.191 1.378 9.782 0 19.417-1.659 28.637-4.93l.736-.262c7.024-2.492 13.686-5.643 19.927-9.365v-23.803z" fill="#ffcebf"/><path d="m259.908 397.146-10.287-46.422-11.317-4.589-44.523 37.589c-3.3 2.77-8.13 2.72-11.37-.11l-43.357-37.337-10.43 4.25-34.267 49.671 66.755 91.931 27.24 10.455h.16l.017-.043c3.063-.741 46.224-11.175 46.776-11.175.571-.001 24.603-94.22 24.603-94.22z" fill="#c8effe"/><path d="m127.995 384.539 37.498-15.75-26.439-22.655-10.43 4.393-22.222 34.012z" fill="#99e6fc"/><g><g><g id="XMLID_402_"><g><path d="m368.511 475.634v23.284c0 2.025-1.641 3.666-3.666 3.666h-176.334l61.11-151.86 48.15 19.64c42.78 17.45 70.74 59.06 70.74 105.27z" fill="#f9f3f1"/></g></g></g><circle cx="384.015" cy="383.018" fill="#c8effe" r="120.334"/><path d="m311.38 383.018c0-58.293 41.466-106.901 96.499-117.967-7.709-1.55-15.698-2.366-23.864-2.366-66.458 0-120.334 53.875-120.334 120.333s53.875 120.333 120.334 120.333c8.166 0 16.163-.813 23.872-2.363-55.033-11.066-96.507-59.678-96.507-117.97z" fill="#99e6fc"/><path d="m427.3 336.385c0-22.759-18.472-41.205-41.241-41.162-21.751.041-39.979 17.387-41.032 39.112-.495 10.202 2.727 19.638 8.428 27.073 4.093 5.337 6.476 11.786 6.476 18.512v19.84h52.416v-19.538c0-6.658 2.079-13.207 6.19-18.445 5.489-6.994 8.763-15.811 8.763-25.392z" fill="#efedef"/><g id="XMLID_404_"><g><path d="m418.174 399.764c7.16 7.76 11.54 18.13 11.54 29.53 0 24.06-19.51 43.57-43.58 43.57-24.06 0-43.57-19.51-43.57-43.57 0-11.4 4.38-21.77 11.54-29.53zm-18.13 29.53c0-7.67-6.24-13.9-13.91-13.9-7.66 0-13.9 6.23-13.9 13.9 0 7.66 6.24 13.9 13.9 13.9 7.67 0 13.91-6.24 13.91-13.9z" fill="#ade194"/></g></g></g><path d="m187.274 503.307h-172.248c-5.49 0-9.941-4.451-9.941-9.941v-17.009c0-46.21 27.96-87.82 70.74-105.27l52.799-20.56z" fill="#f9f3f1"/><path d="m43.531 494.1c0-46.21 27.96-87.82 70.74-105.27l25.554-9.125-11.201-29.178-52.799 20.56c-42.78 17.45-70.74 59.06-70.74 105.27v17.009c0 5.49 4.451 9.941 9.941 9.941h28.506v-9.207z" fill="#f3eae6"/><path d="m118.912 486.655h-61.777c-2.884 0-5.223-2.338-5.223-5.223v-23.038c0-2.884 2.338-5.223 5.223-5.223h61.777c2.884 0 5.223 2.338 5.223 5.223v23.038c0 2.885-2.338 5.223-5.223 5.223z" fill="#c8effe"/><path d="m263.734 138.938-55.84-11.872-50.953 2.968-39.08 23.25v87.56l49.963 64.261 32.155 11.426 28.74-5.504c29.474-17.237 48.225-49.042 48.225-84.083v-76.516z" fill="#ffeee6"/><path d="m262.323 125.387c-10.965 4.096-23.174 3.088-32.774-3.61l-15.803-11.026c-13.799 13.799-36.38 13.799-50.18 0l-15.259 10.646c-3.772 2.631-7.954 4.468-12.307 5.499v.003c-6.815 1.619-14.051 1.254-20.807-1.234l-1.249-.46c-7.072-2.604-14.577 2.63-14.577 10.166v91.865c0 41.185 25.899 77.93 64.709 91.767 15.369 5.479 32.18 5.369 47.558-.085l.459-.163c5.862-2.08 11.438-4.686 16.669-7.748-9.533.592-19.17-.739-28.287-4.015-38.68-13.901-64.475-50.581-64.475-91.683v-48.395c0-6.83 4.63-12.766 11.239-14.49 4.068-1.061 7.972-2.839 11.515-5.311l9.616-6.709c3.59-2.505 7.965-3.614 12.316-3.125 10.682 1.2 31.179 3.074 38.662.786 3.203-.98 6.686-.312 9.434 1.605l10.482 7.313c9.801 6.838 22.317 8.283 33.518 4.116 1.39-.517 2.797-.719 4.162-.671v-14.891c0-7.563-7.548-12.792-14.621-10.15z" fill="#ffdfcf"/><g><path d="m44.696 391.776c-2.979-2.88-7.727-2.799-10.605.178-21.984 22.737-34.091 52.66-34.091 84.257v26.949c0 4.142 3.358 7.5 7.5 7.5s7.5-3.358 7.5-7.5v-26.949c0-27.686 10.609-53.905 29.874-73.83 2.879-2.978 2.799-7.726-.178-10.605z"/><path d="m120.246 445.613h-61.777c-7.015 0-12.723 5.708-12.723 12.723v23.038c0 7.015 5.708 12.723 12.723 12.723h61.777c7.015 0 12.723-5.708 12.723-12.723v-23.038c0-7.015-5.708-12.723-12.723-12.723zm-2.277 33.483h-57.223v-18.483h57.223z"/><path d="m466.406 285.285c-3.167-2.671-7.897-2.271-10.568.895-2.672 3.166-2.271 7.897.895 10.569 25.494 21.514 40.116 52.957 40.116 86.269 0 62.217-50.617 112.833-112.834 112.833s-112.833-50.617-112.833-112.833 50.616-112.833 112.833-112.833c16.563 0 32.526 3.512 47.447 10.438 3.757 1.743 8.216.112 9.961-3.645 1.744-3.757.112-8.216-3.645-9.96-16.915-7.852-35.004-11.833-53.764-11.833-58.127 0-107.311 39-122.775 92.206l-16.754-6.836v-31.298c24.687-19.548 39.907-49.676 39.907-82.303v-3.803c18.003-1.12 32.309-16.114 32.309-34.394 0-5.117-1.129-9.973-3.138-14.344l.006-37.134c3.699-12.858 3.116-26.751-1.667-39.257l-1.631-4.264-.925-16.974c-1.232-22.595-15.287-42.748-35.961-51.763l-1.082-1.058c-12.677-12.391-30.069-18.527-47.713-16.824l-7.983.769-4.871-2.086c-15.019-6.432-32.247-6.432-47.267 0l-4.87 2.086-7.983-.769c-17.644-1.698-35.035 4.433-47.712 16.824l-1.083 1.058c-2.375 1.037-4.709 2.243-6.956 3.593-3.549 2.135-4.696 6.743-2.562 10.292 2.135 3.55 6.743 4.697 10.292 2.562 2.021-1.215 4.13-2.272 6.27-3.14.903-.367 1.726-.905 2.422-1.586l2.1-2.053c9.509-9.294 22.548-13.896 35.79-12.62l9.892.953c1.249.122 2.515-.075 3.672-.571l6.632-2.841c11.267-4.825 24.19-4.825 35.456 0l6.633 2.841c1.156.496 2.42.694 3.672.571l9.892-.953c13.237-1.27 26.282 3.326 35.79 12.619l2.1 2.053c.697.681 1.52 1.22 2.423 1.587 16.081 6.526 27.083 21.941 28.027 39.271l.989 18.147c.043.777.206 1.544.484 2.271l2.051 5.362c3.729 9.751 4.088 20.617 1.01 30.595-.221.716-.333 1.46-.333 2.21l-.003 22.227c-4.266-2.305-9.071-3.731-14.172-4.049v-18.81c0-6.026-2.961-11.667-7.921-15.089-4.959-3.422-11.285-4.189-16.918-2.05-8.838 3.355-18.745 2.128-26.498-3.281l-15.071-10.515c-2.942-2.053-6.928-1.734-9.507.761-11.145 10.783-28.604 10.783-39.749 0-2.58-2.496-6.564-2.813-9.507-.761l-15.259 10.646c-7.659 5.345-17.465 6.608-26.231 3.38l-1.249-.46c-5.62-2.07-11.909-1.26-16.822 2.167-4.913 3.426-7.846 9.047-7.846 15.037v18.976c-5.015.312-9.742 1.699-13.954 3.936v-19.639c0-1.129-.255-2.244-.746-3.26l-1.296-2.685c-5.199-10.771-3.871-23.331 3.465-32.777.937-1.205 1.482-2.668 1.565-4.192l.989-18.147c.292-5.358 1.522-10.567 3.657-15.482 1.65-3.799-.092-8.217-3.891-9.867-3.798-1.649-8.216.092-9.867 3.891-2.847 6.555-4.488 13.5-4.877 20.642l-.868 15.916c-9.571 13.723-11.021 31.334-3.683 46.537l.55 1.14v33.558c-2.149 4.493-3.355 9.519-3.355 14.823 0 18.281 14.306 33.275 32.309 34.394v4.102c0 33.096 15.693 63.688 41.057 83.215v30.087l-57.459 23.444c-4.48 1.828-8.958 3.986-13.309 6.415-3.617 2.019-4.913 6.587-2.894 10.204 1.373 2.46 3.925 3.846 6.556 3.846 1.237 0 2.492-.307 3.648-.953 3.821-2.133 7.746-4.025 11.665-5.624l42.448-17.319 58.19 145.566c1.139 2.849 3.897 4.716 6.964 4.716s5.826-1.868 6.964-4.716l58.189-145.566 4.05 1.652c-1.113 6.771-1.701 13.716-1.701 20.797 0 70.488 57.346 127.833 127.833 127.833 70.488 0 127.834-57.346 127.834-127.833.002-37.739-16.562-73.361-45.441-97.732zm-391.9-96.529c0-10.004 7.588-18.263 17.309-19.342v38.684c-9.721-1.079-17.309-9.337-17.309-19.342zm227.195 0c0 10.004-7.587 18.262-17.309 19.342v-38.683c9.722 1.079 17.309 9.337 17.309 19.341zm-194.886 38.496v-91.866c0-1.513.894-2.362 1.426-2.734.375-.262 1.035-.609 1.889-.609.358 0 .75.061 1.17.216l1.249.46c13.366 4.922 28.317 2.995 39.998-5.155l10.56-7.367c15.229 11.059 35.767 11.059 50.995 0l10.372 7.236c11.822 8.248 26.925 10.12 40.404 5.003 1.425-.542 2.538.002 3.075.373.538.371 1.44 1.221 1.44 2.743v91.401c0 37.989-24.056 72.047-59.86 84.75l-.738.262c-13.703 4.861-28.785 4.831-42.468-.087-35.597-12.793-59.512-46.802-59.512-84.626zm54.438 98.742c8.519 3.062 17.472 4.592 26.43 4.592 8.848 0 17.7-1.495 26.128-4.485l.737-.262c5.201-1.845 10.189-4.077 14.937-6.656v24.636l-30.288 26.03c-6.197 5.326-15.511 5.289-21.667-.084l-29.659-25.892v-23.797c4.282 2.257 8.741 4.25 13.382 5.918zm27.426 157.152-51.265-128.244.194-.079 30.059 26.242c5.901 5.152 13.323 7.729 20.749 7.729 7.341 0 14.686-2.522 20.559-7.569l30.738-26.417.231.094z"/><path d="m386.138 480.366c28.162 0 51.074-22.912 51.074-51.074 0-7.95-1.844-15.677-5.306-22.656 2.653-1.156 4.509-3.798 4.509-6.876 0-4.142-3.357-7.5-7.5-7.5h-9.069v-12.038c0-5.137 1.63-10.043 4.589-13.814 6.781-8.639 10.365-19.021 10.365-30.023 0-13.015-5.073-25.247-14.285-34.441-9.19-9.173-21.394-14.22-34.376-14.22-.031 0-.063 0-.095 0-25.946.049-47.255 20.365-48.509 46.249-.56 11.524 2.98 22.889 9.968 32.001 3.223 4.204 4.927 9.026 4.927 13.948v12.34h-9.068c-4.143 0-7.5 3.358-7.5 7.5 0 3.08 1.858 5.723 4.512 6.878-3.465 6.977-5.309 14.704-5.309 22.654-.001 28.16 22.911 51.072 51.073 51.072zm0-15c-19.891 0-36.073-16.183-36.073-36.074 0-8.028 2.653-15.738 7.521-22.032h2.344 52.416 2.333c4.871 6.295 7.533 14.002 7.533 22.032 0 19.891-16.183 36.074-36.074 36.074zm-26.732-108.521c-4.83-6.298-7.276-14.163-6.889-22.146.853-17.597 15.905-31.941 33.555-31.975h.065c8.98 0 17.424 3.492 23.78 9.836 6.372 6.361 9.882 14.822 9.882 23.825 0 7.611-2.478 14.791-7.165 20.762-5.022 6.4-7.789 14.595-7.789 23.075v12.038h-37.415v-12.34c0-8.25-2.775-16.23-8.024-23.075z"/><path d="m386.138 407.891c-11.8 0-21.4 9.601-21.4 21.401s9.601 21.401 21.4 21.401c11.801 0 21.401-9.601 21.401-21.401s-9.601-21.401-21.401-21.401zm0 27.802c-3.529 0-6.4-2.872-6.4-6.401 0-3.53 2.871-6.401 6.4-6.401s6.401 2.872 6.401 6.401c0 3.53-2.872 6.401-6.401 6.401z"/></g></g></svg>