<svg id="Capa_1" enable-background="new 0 0 513.438 513.438" height="512" viewBox="0 0 513.438 513.438" width="512" xmlns="http://www.w3.org/2000/svg"><g><g><path d="m238.547 348.721c-.8-.33-1.32-1.1-1.32-1.96v-89.49h-96.61v89.49c0 .86-.52 1.63-1.32 1.96l5.847 44.963 44.793 25.213 47.246-15.042 2.654-54.604z" fill="#fed2a4"/><path d="m302.061 96.892c0-12.139-5.368-23.657-14.663-31.464-10.86-34.479-42.83-57.928-78.978-57.928h-37.946c-36.148 0-68.118 23.449-78.978 57.927-9.296 7.807-14.663 19.325-14.663 31.464v104.887h225.227v-104.886z" fill="#a79ba7"/><g><path d="m94.318 226.102c-14.894 0-26.969-12.074-26.969-26.969 0-14.894 12.074-26.969 26.969-26.969h52.649v53.937h-52.649z" fill="#ffbd86"/><path d="m285.576 226.102c14.894 0 26.969-12.074 26.969-26.969 0-14.894-12.074-26.969-26.969-26.969h-74.271v52.562z" fill="#fed2a4"/><path d="m140.617 257.271v89.49c0 .86-.52 1.63-1.32 1.96l5.847 44.963 22.436 12.629-3.095-23.804c.8-.33 1.32-1.1 1.32-1.96v-29.88c0-6.551 5.76-11.661 12.251-10.771 3.813.523 7.666.788 11.545.788 9.782 0 19.417-1.659 28.638-4.93l.736-.261c6.404-2.272 12.495-5.107 18.253-8.407v-36.028-1.263-32.525h-96.611z" fill="#ffbd86"/><g><g id="XMLID_290_"><g><path d="m261.494 400.313-10.287-46.422-11.37-4.64-44.47 37.64c-3.3 2.77-8.13 2.72-11.37-.11l-44.7-38.06-10.43 4.25-32.924 50.394 66.755 91.931 27.24 10.455h.16l.017-.043c3.063-.741 46.224-11.175 46.776-11.175.572-.001 24.603-94.22 24.603-94.22z" fill="#c8effe"/><path d="m370.097 478.801v26.95h-180l61.11-151.86 48.15 19.64c42.78 17.449 70.74 59.06 70.74 105.27z" fill="#f9f3f1"/><path d="m189.937 505.751h-172.249c-5.49 0-9.941-4.451-9.941-9.941v-17.009c0-46.21 27.96-87.82 70.74-105.27l50.38-20.56z" fill="#f9f3f1"/><g><path d="m116.934 391.274 48.871-19.983-26.508-22.57-10.43 4.25-31.97 48.933c6.233-4.147 12.925-7.729 20.037-10.63z" fill="#99e6fc"/></g><path d="m46.194 496.544c0-46.21 27.96-87.82 70.74-105.27l23.423-9.559-11.49-28.744-50.38 20.56c-42.78 17.45-70.74 59.06-70.74 105.27v17.009c0 5.49 4.451 9.941 9.941 9.941h28.506z" fill="#f3eae6"/></g></g></g><path d="m121.59 489.182h-61.778c-2.884 0-5.223-2.338-5.223-5.223v-23.038c0-2.884 2.338-5.223 5.223-5.223h61.777c2.884 0 5.223 2.338 5.223 5.223v23.038c.001 2.885-2.338 5.223-5.222 5.223z" fill="#c8effe"/><g><circle cx="385.359" cy="385.604" fill="#c8effe" r="120.334"/><path d="m316.918 385.604c0-57.549 40.428-105.658 94.413-117.523-8.357-1.837-17.063-2.81-25.973-2.81-66.458 0-120.334 53.875-120.334 120.333s53.876 120.334 120.335 120.334c8.909 0 17.622-.975 25.98-2.812-53.985-11.866-94.421-59.973-94.421-117.522z" fill="#99e6fc"/><path d="m385.357 298.94c-6.02 0-11.89.61-17.57 1.76-.587.17-1.168.354-1.745.549l-15.548 4.889-9.047 8.213s-19.086 48.423-19.086 49.483 64.017 110.746 64.017 110.746c48.04-.54 86.81-39.65 86.81-87.81-.001-48.51-39.321-87.83-87.831-87.83z" fill="#f9f3f1"/><circle cx="398.918" cy="344.881" fill="#a79ba7" r="15.297"/><path d="m420.577 398.49c-7.85-7.86-18.71-12.72-30.7-12.72h-9.9c-23.98 0-43.42-19.44-43.42-43.41 0-9.97 3.37-19.16 9.02-26.49 5.54-7.17 13.28-12.58 22.21-15.17-40.08 8.14-70.26 43.58-70.26 86.07 0 48.819 39.848 88.336 88.787 87.815.021-.002.042-.003.063-.005l1.44-.209c4.022-.585 7.987-1.51 11.852-2.764l1.838-.596c18.33-5.09 31.79-21.88 31.79-41.82 0-11.99-4.86-22.841-12.72-30.701z" fill="#a79ba7"/><path d="m347.954 466.253c-19.286-21.338-31.036-49.617-31.036-80.645 0-29.068 10.347-55.766 27.506-76.562-27.86 14.725-46.897 44.022-46.897 77.728 0 35.124 20.628 65.432 50.427 79.479z" fill="#918291"/><circle cx="370.932" cy="426.662" fill="#f9f3f1" r="15.297"/></g></g><path d="m254.156 106.856-55.002 11.815s-52.15-8.148-52.127-7.334-20.393 1.63-20.393 1.63l-6.519 91.669 26.912 88.817s-2.908 2.161-6.955 5.213l9.823 10.366 54.364 13.123 21.489-5.875c32.277-16.468 53.122-49.81 53.122-86.751v-72.104l-.061-23.53-6.728-15.632z" fill="#ffe5c2"/><path d="m235.877 97.84-37.793 10.35c-5.289 1.449-10.859 1.54-16.192.265l-34.046-8.137-4.755-1.136c-21.349-5.103-41.858 11.082-41.858 33.032v25.225 72.4c0 41.102 25.795 77.782 64.475 91.683 15.351 5.517 32.139 5.552 47.513.097l.739-.262c4.074-1.445 8.031-3.155 11.807-5.084-7.44-.204-14.888-1.569-21.995-4.123-38.68-13.901-64.475-50.582-64.475-91.683 0 0 .01-66.237.028-90.518.004-5.181 4.808-9.125 9.851-7.936.034.008.067.016.101.024l38.801 9.274c5.334 1.275 10.903 1.184 16.192-.265l37.792-10.35c14.502-3.972 28.862 2.053 36.748 13.212v-3.311c.001-22.409-21.32-38.676-42.933-32.757z" fill="#fed2a4"/></g><g><path d="m33.645 406.179c-3.359-2.424-8.047-1.666-10.471 1.692-15 20.784-22.929 45.31-22.929 70.925v26.949c0 4.142 3.358 7.5 7.5 7.5s7.5-3.358 7.5-7.5v-26.949c0-22.444 6.948-43.934 20.092-62.147 2.424-3.358 1.666-8.046-1.692-10.47z"/><path d="m121.59 448.199h-61.777c-7.015 0-12.723 5.708-12.723 12.723v23.038c0 7.015 5.708 12.723 12.723 12.723h61.777c7.015 0 12.723-5.708 12.723-12.723v-23.038c0-7.015-5.708-12.723-12.723-12.723zm-2.277 33.484h-57.223v-18.483h57.223z"/><path d="m455.177 278.514c-3.467-2.265-8.114-1.29-10.381 2.178-2.265 3.468-1.29 8.116 2.178 10.381 32.072 20.949 51.219 56.288 51.219 94.532 0 62.217-50.617 112.833-112.833 112.833s-112.833-50.617-112.833-112.833 50.617-112.833 112.833-112.833c11.783 0 23.406 1.814 34.545 5.394 3.94 1.266 8.167-.902 9.435-4.847 1.267-3.943-.903-8.167-4.847-9.435-12.624-4.056-25.791-6.112-39.133-6.112-58.273 0-107.562 39.195-122.895 92.606l-17.734-7.235v-29.982c24.637-18.705 40.274-47.779 41.501-79.572 18.704-.352 33.814-15.665 33.814-34.452 0-9.69-4.025-18.453-10.484-24.721v-77.524c0-13.649-5.686-26.552-15.673-35.742-12.484-36.668-46.563-61.15-85.469-61.15h-37.945c-14.512 0-28.978 3.555-41.833 10.279-3.67 1.92-5.089 6.452-3.169 10.122s6.451 5.09 10.122 3.169c10.718-5.607 22.779-8.57 34.88-8.57h37.945c33.036 0 61.9 21.171 71.824 52.681.429 1.361 1.237 2.572 2.331 3.49 7.618 6.397 11.987 15.772 11.987 25.721v68.969c-2.639-.713-5.403-1.117-8.25-1.177v-34.086c0-13.04-5.946-25.055-16.313-32.964-10.366-7.909-23.524-10.472-36.103-7.026l-37.793 10.35c-4.06 1.112-8.371 1.183-12.467.204l-38.801-9.273c-12.423-2.97-25.298-.134-35.324 7.778s-15.777 19.776-15.777 32.548v32.466c-3.263.055-6.417.56-9.4 1.465v-69.254c0-9.948 4.369-19.323 11.987-25.721 1.093-.918 1.901-2.129 2.331-3.49 3.009-9.555 7.806-18.276 14.257-25.921 2.671-3.166 2.271-7.897-.895-10.569s-7.898-2.27-10.569.895c-7.281 8.628-12.804 18.396-16.437 29.064-9.988 9.19-15.674 22.093-15.674 35.742v78.534c-5.87 6.183-9.484 14.529-9.484 23.708 0 18.835 15.188 34.181 33.958 34.456 1.11 30.911 15.882 59.313 39.309 78.123v31.428l-57.462 23.445c-10.229 4.173-19.858 9.745-28.618 16.559-3.27 2.543-3.858 7.255-1.315 10.525 1.479 1.901 3.69 2.896 5.925 2.896 1.609 0 3.231-.516 4.6-1.581 7.678-5.973 16.114-10.854 25.075-14.51l43.393-17.705 58.344 145.952c1.138 2.846 3.892 4.713 6.956 4.716h.008c3.061 0 5.815-1.86 6.958-4.7l58.37-145.063 3.805 1.553c-1.068 6.638-1.631 13.442-1.631 20.377 0 70.488 57.346 127.833 127.833 127.833s127.833-57.346 127.833-127.833c.001-43.328-21.687-83.362-58.014-107.091zm-150.132-79.38c0 10.487-8.341 19.041-18.734 19.432v-38.863c10.393.39 18.734 8.944 18.734 19.431zm-230.195 0c0-10.538 8.421-19.126 18.884-19.439v38.878c-10.463-.313-18.884-8.901-18.884-19.439zm33.884 30.704v-97.625c0-8.152 3.67-15.724 10.069-20.773 4.735-3.737 10.466-5.699 16.339-5.699 2.063 0 4.145.242 6.206.735l38.8 9.273c6.544 1.564 13.431 1.452 19.917-.326l37.792-10.35c8.028-2.199 16.425-.563 23.042 4.485 6.616 5.048 10.411 12.716 10.411 21.039v98.946c0 37.989-24.055 72.045-59.86 84.746l-.738.262c-13.704 4.862-28.786 4.831-42.468-.087-35.595-12.793-59.51-46.801-59.51-84.626zm54.438 98.742c8.518 3.062 17.472 4.592 26.429 4.592 8.849 0 17.701-1.495 26.129-4.485l.737-.262c4.597-1.631 9.017-3.58 13.263-5.787v24.121c0 .475.038.942.104 1.401l-39.293 32.983c-.472.395-1.149.389-1.612-.016l-40.813-35.629v-23.722c4.783 2.636 9.81 4.919 15.056 6.804zm26.873 157.209-51.44-128.682 40.46 35.321c3.077 2.686 6.875 4.032 10.678 4.032 3.699 0 7.401-1.274 10.442-3.827l41.258-34.633.018.008z"/><path d="m376.122 344.88c0 12.57 10.227 22.797 22.796 22.797 12.57 0 22.797-10.227 22.797-22.797s-10.227-22.796-22.797-22.796-22.796 10.227-22.796 22.796zm22.796-7.796c4.299 0 7.797 3.498 7.797 7.796 0 4.299-3.498 7.797-7.797 7.797s-7.796-3.498-7.796-7.797c0-4.298 3.497-7.796 7.796-7.796z"/><path d="m370.933 403.865c-12.57 0-22.797 10.227-22.797 22.796 0 12.57 10.227 22.797 22.797 22.797s22.796-10.227 22.796-22.797c0-12.569-10.227-22.796-22.796-22.796zm0 30.593c-4.299 0-7.797-3.498-7.797-7.797s3.498-7.796 7.797-7.796 7.796 3.498 7.796 7.796c0 4.3-3.498 7.797-7.796 7.797z"/><path d="m290.596 385.771c0 52.014 42.316 94.33 94.33 94.33s94.33-42.316 94.33-94.33-42.316-94.33-94.33-94.33-94.33 42.316-94.33 94.33zm106.153 78.18c-2.475.469-4.981.796-7.497 1.026 0 .001 0 .001.001.002-1.433.077-2.875.123-4.327.123-43.743 0-79.33-35.587-79.33-79.33 0-21.073 8.275-40.237 21.726-54.458-.837 3.653-1.3 7.429-1.3 11.288 0 28.074 22.84 50.915 50.915 50.915h9.906c19.803 0 35.915 16.111 35.915 35.915-.001 15.977-10.681 30.13-26.009 34.519zm67.506-78.18c0 25.095-11.726 47.49-29.972 62.037 2.241-5.748 3.474-11.955 3.474-18.377 0-28.075-22.84-50.915-50.915-50.915h-9.906c-19.803 0-35.915-16.111-35.915-35.915 0-14.432 8.716-27.37 21.698-32.974 7.052-2.06 14.498-3.186 22.206-3.186 43.743 0 79.33 35.587 79.33 79.33z"/></g></g></svg>