<svg id="Capa_1" enable-background="new 0 0 512.907 512.907" height="512" viewBox="0 0 512.907 512.907" width="512" xmlns="http://www.w3.org/2000/svg"><g><g><g><g id="XMLID_682_"><g><path d="m315.22 269.78c6.06 17.95-1.48 37.67-17.96 47.01-6.12 3.47-12.83 5.14-19.47 5.14-11.5 0-22.81-5.01-30.54-14.41l-4.34-5.27s-36.34-56.69-37.72-56.69c-1.37 0-44 0-44 0l-45.96 56.69-4.34 5.27c-12.2 14.83-33.3 18.74-50.01 9.27-12.66-7.17-20.04-20.47-20.04-34.38 0-4.21.67-8.47 2.08-12.63l20.27-60.1-1.43-22.4-.13-16.46c-.08-10.86.42-21.7 1.51-32.48l3.62-25.19c1.74-9.26 3.92-18.45 6.53-27.53l.01-.04 2.6-6.87c16.26-42.87 57.33-71.21 103.17-71.21 22.92 0 44.65 7.08 62.68 19.53 18.03 12.44 32.36 30.25 40.49 51.68l2.62 6.93c2.61 9.07 4.78 18.25 6.52 27.51l3.71 26.06c1.03 10.49 1.5 21.03 1.42 31.59l-.13 16.48-1.43 22.4z" fill="#a79ba7"/></g></g></g><path d="m269.135 223.934c15.712 0 28.449-12.737 28.449-28.449 0-15.712-12.737-28.449-28.449-28.449h-42.342v56.63z" fill="#eb9c8d"/><path d="m89.006 223.934c-15.712 0-28.449-12.737-28.449-28.449 0-15.712 12.737-28.449 28.449-28.449h33.215v56.899h-33.215z" fill="#d78878"/><g><path d="m250.902 371.951-31.113-14.786v-39.74l-1.18-71.869h-79.67v71.869 39.74l-53.204 24.773 95.244 118.962 90.405-103.829z" fill="#eb9c8d"/><path d="m219.488 299.096h-63.768v14.718h-16.781v3.611 39.74l-32.048 14.752 2.843 27.313 42.469-19.113c6.176-2.876 10.124-9.07 10.124-15.882v-10.267c0-5.744 4.883-10.272 10.611-9.84 2.012.152 4.033.229 6.062.229h.002c9.35 0 18.631-1.597 27.443-4.722l4.272-1.515c3.102-1.1 6.122-2.348 9.072-3.705v-16.99z" fill="#d78878"/><path d="m259.224 143.643-114.546 3.393-37.759 11.453 15.33 117.703 46.818 38.109h46.758c31.316-15.813 51.562-48.066 51.562-83.813l-.191-77.143z" fill="#f1b0a2"/><path d="m267.092 122.958h-139.357-2.107-35.846v107.815c0 39.622 24.866 74.983 62.154 88.384l3.502 1.259c14.588 5.243 30.542 5.276 45.151.092l4.254-1.509c3.789-1.344 7.46-2.919 10.982-4.699-7.589-.032-15.189-1.354-22.436-3.958l-3.5-1.258c-37.287-13.401-62.154-48.761-62.154-88.384v-40.41c0-4.487 5.24-6.832 8.661-3.929 11.56 9.81 26.507 15.738 42.823 15.738 24.638 0 46.168-13.507 57.61-33.498 1.846-3.225 5.234-5.257 8.95-5.257h21.415z" fill="#eb9c8d"/><path d="m297.584 138.344c4.194 0 7.593-3.399 7.593-7.593v-10.004c0-4.193-3.4-7.593-7.593-7.593h-237.047c-4.194 0-7.593 3.399-7.593 7.593v10.004c0 4.194 3.4 7.593 7.593 7.593z" fill="#faf7f7"/></g><path d="m248.633 381.413-8.459 11.034-56.31 35.58c-3.21 2.02-7.29 2.02-10.5 0l-56.31-35.58-12.028-9.882-31.192 101.942 66.87 21.729h75.82s40.173-17.122 41.037-17.698c.864-.575-8.928-107.125-8.928-107.125z" fill="#c8effe"/><path d="m98.952 384.527-28.818 1.2c-1.446.914-2.86 1.869-4.257 2.843l-.075.05v.003c-29.822 20.832-48.208 55.171-48.208 92.464v13.452c0 6.46 5.237 11.698 11.698 11.698h111.102z" fill="#faf7f7"/><path d="m109.227 414.704h-21.671c4.954-5.102 10.402-9.763 16.307-13.888v-.003l.075-.05c.146-.102.294-.2.44-.302l-5.426-15.935-28.818 1.2c-1.446.914-2.86 1.869-4.257 2.843l-.075.05v.003c-29.822 20.832-48.208 55.171-48.208 92.464v13.452c0 6.461 5.237 11.698 11.698 11.698h26.362v-12.956c0-22.533 6.72-43.983 18.613-62.031 1.208-1.833 3.896-1.854 5.145-.049l-4.763 9.349c-1.589 3.119-1.193 6.881 1.01 9.601l45.431 56.086h19.304z" fill="#f3eae6"/><path d="m117.054 392.447 23.65 113.79h-.31l-50.57-62.43 7.02-13.78-26.5-38.28c-1.3-1.87-1.28-4.22-.21-6.02 4.73-2.97 9.71-5.63 14.93-7.92l23.62-10.37h.01c1.95.51 3.59 2.08 4.04 4.25l4.31 20.76z" fill="#faf7f7"/><g id="XMLID_680_"><g><path d="m294.538 390.142-.001-.007-.124-.083c-2.671-1.952-5.431-3.802-8.289-5.525l-22.148 3.764-47.142 117.946h113.887c5.475 0 9.913-4.438 9.913-9.913v-15.237c0-36.4-17.511-69.997-46.096-90.945z" fill="#faf7f7"/><path d="m263.976 388.29-47.142 117.946h19.304l49.054-60.559-7.376-14.478 21.409-30.927c.987-1.428 1.753-2.955 2.333-4.531-2.26-1.951-4.596-3.825-7.019-5.601l-.001-.007-.124-.083c-2.671-1.952-5.431-3.802-8.289-5.525z" fill="#f3eae6"/><path d="m286.124 384.527c1.95 1.83 2.37 4.89.76 7.22l-26.5 38.28 7.02 13.78-50.57 62.43h-.31l23.65-113.79h.01l4.31-20.76c.51-2.43 2.49-4.1 4.74-4.38l20.99 9.21 13.02 6.34c.97.53 1.93 1.09 2.88 1.67z" fill="#faf7f7"/></g></g><g><circle cx="374.482" cy="384.074" fill="#c8effe" r="120.334"/><path d="m301.558 384.074c0-58.343 41.526-106.994 96.631-118.004-7.664-1.531-15.592-2.33-23.707-2.33-66.458 0-120.334 53.875-120.334 120.333s53.875 120.333 120.334 120.333c8.115 0 16.056-.806 23.72-2.337-55.105-11.009-96.644-59.652-96.644-117.995z" fill="#99e6fc"/></g><circle cx="179.22" cy="125.749" fill="#c9bfc8" r="51.349"/><circle cx="179.22" cy="125.749" fill="#fee97d" r="21.286"/></g><g><path d="m179.22 154.535c15.873 0 28.787-12.913 28.787-28.786s-12.914-28.786-28.787-28.786-28.786 12.913-28.786 28.786 12.913 28.786 28.786 28.786zm0-42.572c7.603 0 13.787 6.185 13.787 13.786s-6.185 13.786-13.787 13.786-13.786-6.185-13.786-13.786 6.184-13.786 13.786-13.786z"/><path d="m23.774 443.613c-3.996-1.062-8.108 1.325-9.17 5.33-2.663 10.052-4.013 20.413-4.013 30.796v25.147c0 4.143 3.357 7.5 7.5 7.5s7.5-3.357 7.5-7.5v-25.147c0-9.087 1.182-18.156 3.513-26.956 1.061-4.004-1.325-8.109-5.33-9.17z"/><path d="m449.74 280.741c-3.347-2.441-8.038-1.707-10.479 1.64-2.44 3.347-1.707 8.038 1.64 10.479 29.063 21.201 46.415 55.3 46.415 91.214 0 62.217-50.617 112.833-112.834 112.833s-112.833-50.616-112.833-112.833 50.616-112.834 112.832-112.834c13.783 0 27.258 2.464 40.049 7.322 3.872 1.467 8.202-.476 9.675-4.349 1.471-3.872-.477-8.203-4.349-9.675-14.499-5.507-29.765-8.299-45.375-8.299-18.567 0-36.22 3.983-52.156 11.133l-19.779-58.648c1.631-4.101 2.538-8.565 2.538-13.241 0-3.178-.42-6.259-1.198-9.196l.123-15.429c.068-8.659-.255-17.397-.923-26.069 5.606-2.205 9.591-7.66 9.591-14.04v-10.004c0-8.322-6.771-15.093-15.093-15.093h-.054c-1.549-7.423-3.372-14.829-5.456-22.089-.058-.199-.123-.396-.196-.59l-2.629-6.93c-8.52-22.459-23.472-41.543-43.241-55.188-19.77-13.642-42.916-20.855-66.938-20.855-27.23 0-53.822 9.541-74.878 26.867-3.198 2.632-3.657 7.357-1.025 10.557 2.631 3.198 7.357 3.658 10.557 1.025 18.377-15.121 41.585-23.449 65.346-23.449 20.964 0 41.163 6.294 58.416 18.202s30.302 28.563 37.736 48.164l2.519 6.637c1.662 5.811 3.139 11.72 4.438 17.651h-47.646c-8.23-22.584-29.917-38.755-55.313-38.755-25.395 0-47.082 16.17-55.312 38.755h-47.944c1.3-5.93 2.781-11.848 4.455-17.702l2.499-6.586c2.78-7.328 6.399-14.339 10.759-20.836 2.309-3.439 1.391-8.099-2.049-10.406-3.441-2.311-8.101-1.391-10.406 2.049-4.996 7.445-9.144 15.478-12.329 23.873l-2.609 6.878c-.073.193-.149.428-.206.627-2.089 7.266-3.913 14.676-5.463 22.104h-.078c-8.322 0-15.093 6.771-15.093 15.093v10.004c0 6.39 3.998 11.852 9.619 14.05-.671 8.672-.999 17.409-.931 26.074l.123 15.412c-.778 2.937-1.198 6.019-1.198 9.197 0 4.676.906 9.141 2.538 13.241l-19.783 58.658c-7.189 21.316 1.797 44.84 21.368 55.934 7.306 4.142 15.293 6.141 23.202 6.141 13.662-.001 27.083-5.971 36.3-17.174l2.633-3.2c3.71 3.06 7.653 5.866 11.805 8.39v30.806l-23.112 10.14c-2.018-.033-4.042.399-5.925 1.314l-32.386 15.763c-1.645.8-3.073 1.93-4.228 3.29-15.105 9.783-28.042 23.116-37.414 38.558-2.149 3.541-1.021 8.154 2.52 10.303 1.217.738 2.559 1.09 3.885 1.09 2.534 0 5.008-1.285 6.418-3.609 6.604-10.881 15.249-20.535 25.254-28.362l22.497 32.5-4.985 9.789c-1.345 2.64-1.01 5.823.854 8.125l50.985 62.948c1.461 1.804 3.622 2.78 5.831 2.779 1.085 0 2.181-.235 3.211-.724 3.128-1.483 4.834-4.914 4.129-8.303l-20.165-96.998 41.37 26.132c2.812 1.776 6.034 2.664 9.256 2.664s6.444-.888 9.255-2.664l42.087-26.586-20.258 97.451c-.705 3.389 1.001 6.819 4.129 8.303 1.03.488 2.126.725 3.211.724 2.208 0 4.37-.976 5.831-2.779l44.74-55.239c22.942 34.348 62.057 57.018 106.372 57.018 70.488 0 127.834-57.346 127.834-127.833-.001-40.689-19.655-79.318-52.576-103.334zm-200.366 77.034-21.643-9.495v-32.157c3.696-2.348 7.222-4.916 10.555-7.695l3.173 3.856c5.134 6.241 11.656 10.972 19.076 13.882-5.035 9.869-8.823 20.476-11.161 31.609zm59.809-83.556c-16.325 9.74-30.31 23.011-40.886 38.756-5.987-1.85-11.246-5.348-15.253-10.22l-3.941-4.79c16.1-18.078 25.626-41.751 25.747-66.991 6.307-1.012 12.069-3.671 16.834-7.521l16.432 48.723c.254.754.621 1.435 1.067 2.043zm-21.057-128.375c.506 6.547.79 13.131.855 19.691-4.18-2.778-8.968-4.709-14.122-5.538v-14.153zm-13.267 29.506c8.774 2.499 15.225 10.569 15.225 20.134s-6.45 17.635-15.225 20.134zm22.725-54.696c.051 0 .093.042.093.093v10.004c0 .051-.042.093-.093.093h-59.749c.145-1.681.235-3.377.235-5.095s-.09-3.414-.235-5.095zm-118.364-38.755c24.179 0 43.85 19.671 43.85 43.85s-19.671 43.85-43.85 43.85c-24.178 0-43.849-19.671-43.849-43.85s19.671-43.85 43.849-43.85zm-58.614 48.945h-60.07c-.051 0-.093-.042-.093-.093v-10.004c0-.051.042-.093.093-.093h60.07c-.145 1.681-.235 3.377-.235 5.095s.09 3.414.235 5.095zm-52.549 64.64c0-9.196 5.966-16.997 14.225-19.802v39.618c-8.261-2.805-14.225-10.618-14.225-19.816zm14.224-35.306c-4.774.907-9.216 2.758-13.124 5.355.072-6.561.376-13.142.886-19.689h12.238zm-17.705 150.091c-13.327-7.556-19.447-23.575-14.552-38.092l16.435-48.733c4.509 3.641 9.91 6.215 15.822 7.338.002 25.598 9.725 49.639 26.17 67.896l-3.354 4.076c-9.91 12.047-26.952 15.204-40.521 7.515zm32.705-79.495v-84.931h26.626c8.23 22.584 29.917 38.755 55.312 38.755 25.396 0 47.083-16.17 55.313-38.755h25.326v84.643c0 36.508-23.117 69.237-57.523 81.444l-4.255 1.509c-12.94 4.592-27.187 4.562-40.109-.082l-3.5-1.258c-34.206-12.293-57.19-44.975-57.19-81.325zm1.938 210.749 4.808-9.44c1.252-2.458 1.054-5.405-.516-7.673l-25.21-36.418 28.098-13.676 21.274 102.337zm81.137-21.188c-.754.477-1.73.478-2.486-.001l-53.627-33.875-3.578-17.212 20.967-9.199c2.727-1.196 4.487-3.892 4.487-6.868v-28.217c1.084.433 2.175.855 3.279 1.252l3.5 1.258c8.137 2.925 16.69 4.387 25.245 4.387 8.451 0 16.904-1.428 24.952-4.283l4.255-1.509c1.824-.647 3.612-1.36 5.381-2.104v29.217c0 2.977 1.761 5.672 4.487 6.868l20.967 9.199-3.484 16.759zm50.823 56.318 16.273-78.286c1.695 15.167 6.054 29.539 12.598 42.639z"/><path d="m407.865 407.4-24.589-68.4 12.456-34.65c1.401-3.897-.622-8.193-4.521-9.595-3.893-1.4-8.193.623-9.595 4.521l-6.311 17.555-6.311-17.555c-1.4-3.897-5.7-5.92-9.595-4.521-3.898 1.401-5.922 5.697-4.521 9.595l12.459 34.65-24.589 68.4-8.911-3.634c-6.444-2.629-13.517-2.562-19.915.186-6.396 2.749-11.311 7.834-13.839 14.319l-1.082 2.774c-4.998 12.815.918 27.263 13.468 32.89 3.344 1.5 6.947 2.251 10.553 2.251 3.435 0 6.872-.682 10.085-2.048 6.586-2.801 11.752-8.27 14.173-15.004l6.915-19.234c.017-.046.033-.092.049-.138l21.063-58.593 21.059 58.582c.019.054.037.106.058.159l6.91 19.224c2.421 6.734 7.587 12.203 14.173 15.004 3.214 1.366 6.649 2.048 10.085 2.048 3.605 0 7.209-.751 10.552-2.25 12.552-5.629 18.468-20.075 13.47-32.89l-1.082-2.776c-2.529-6.485-7.444-11.57-13.84-14.318s-13.469-2.815-19.915-.186zm-74.701 26.661c-1.027 2.857-3.132 5.086-5.927 6.273-2.795 1.188-5.858 1.158-8.631-.085-5.247-2.353-7.721-8.394-5.631-13.753l1.082-2.775c1.058-2.711 3.112-4.838 5.787-5.987 1.369-.588 2.812-.883 4.256-.883 1.377 0 2.756.269 4.072.805l9.496 3.873zm97.604-16.328c2.675 1.149 4.73 3.276 5.788 5.987l1.082 2.776c2.09 5.358-.384 11.398-5.633 13.753-2.77 1.242-5.834 1.272-8.63.084-2.795-1.188-4.899-3.416-5.927-6.273l-4.505-12.532 9.496-3.872c2.695-1.1 5.654-1.073 8.329.077z"/></g></g></svg>