<svg xmlns="http://www.w3.org/2000/svg" viewBox="0 0 74 74" width="512" height="512"><path d="M36.975 41.077c-9.019-.294-11.182-8.016-11.645-10.509a3.915 3.915 0 01-2.193-1.393 4.407 4.407 0 01-.821-3 4.138 4.138 0 01.976-3.217 3.026 3.026 0 01.729-.55 15.905 15.905 0 01-2.37-9.034c1.044-7.46 7.056-8.186 8.939-8.228a8.815 8.815 0 013.169-2.337 11.168 11.168 0 017.179-.4c4.662 1.217 7.771 3.551 9.246 6.938 2.1 4.814.258 10.355-.8 12.843a3.063 3.063 0 011.092.627 4.011 4.011 0 011.116 3.361 4.4 4.4 0 01-.82 3 3.921 3.921 0 01-2.194 1.393c-.463 2.49-2.621 10.212-11.603 10.506zm-11.283-17.07a1.353 1.353 0 00-.966.344 2.383 2.383 0 00-.409 1.789 1.027 1.027 0 01-.007.2 2.469 2.469 0 00.419 1.625 2.283 2.283 0 001.6.758 1 1 0 01.879.908c.033.372.92 9.157 9.769 9.447 8.8-.29 9.691-9.075 9.724-9.449a1 1 0 01.879-.906 2.281 2.281 0 001.6-.758 2.474 2.474 0 00.419-1.633 1.047 1.047 0 01-.007-.194 2.383 2.383 0 00-.451-1.836 1.517 1.517 0 00-1.086-.284A1 1 0 0147 22.559c.037-.07 3.7-7.022 1.346-12.425-1.219-2.792-3.88-4.741-7.911-5.793a9.159 9.159 0 00-5.873.3 6.725 6.725 0 00-2.694 2.108.991.991 0 01-.887.4c-.259-.021-6.382-.417-7.342 6.428s-.277 5.445 2.877 8.745a1 1 0 01.19 1.1.947.947 0 01-.947.591z"/><path d="M47.881 24.031a1 1 0 01-1-.958c-.012-.259-.322-6.3-4.832-6.881a15.226 15.226 0 01-11.613-3.364c-1.275.959-4.213 3.874-3.648 10.091a1 1 0 01-1.988.181c-.829-9.121 5.028-12.287 5.277-12.417a1 1 0 011.154.164A13.355 13.355 0 0041.857 14.2a1.118 1.118 0 01.277-.01c5.084.529 6.637 5.991 6.747 8.8a1 1 0 01-.958 1.038zM65.089 72H8.911a1 1 0 01-1-1V59.852a13.308 13.308 0 0113.3-13.281h1.92a1 1 0 110 2h-1.92a11.306 11.306 0 00-11.3 11.281V70h54.178V59.852a11.294 11.294 0 00-11.281-11.281H50.75a1 1 0 010-2h2.058a13.3 13.3 0 0113.281 13.281V71a1 1 0 01-1 1z"/><path d="M40.342 72a1 1 0 01-.989-1.149L43.4 44.068a1 1 0 011.277-.808l6.984 2.105a1 1 0 01.608 1.4l-2.776 5.57 1.61 1.807a1 1 0 01.1 1.191L41.192 71.526a1 1 0 01-.85.474zm4.864-26.492l-3.145 20.813 7.053-11.4-1.563-1.755a1 1 0 01-.149-1.111l2.548-5.114zM33.543 72a1 1 0 01-.851-.474l-10.014-16.19a1 1 0 01.1-1.191l1.61-1.807-2.776-5.57a1 1 0 01.608-1.4l6.984-2.105a1 1 0 011.276.808l4.049 26.783A1 1 0 0133.543 72zm-8.772-17.082l7.053 11.4-3.145-20.81-4.744 1.43 2.547 5.114a1 1 0 01-.148 1.111z"/><path d="M37.017 53.355a54.215 54.215 0 01-6.469-.392 1 1 0 11.238-1.985 50.417 50.417 0 0012.307 0 1 1 0 01.25 1.984 50.5 50.5 0 01-6.326.393zm7.374-8.138a1 1 0 01-.8-.405c-1.486-2.009-1.755-5.991-1.78-6.438a1 1 0 01.94-1.056 1.011 1.011 0 011.056.94c.061 1.052.431 4.067 1.391 5.365a1 1 0 01-.8 1.594zm-14.897 0a1 1 0 01-.8-1.594c.962-1.3 1.331-4.314 1.392-5.365a1 1 0 112 .116c-.025.447-.3 4.429-1.78 6.438a1 1 0 01-.812.405zm27.661 12.767a1 1 0 01-1-.971c-.187-6.512-2.663-8.561-2.687-8.581a1.007 1.007 0 01-.174-1.4.994.994 0 011.385-.192c.132.1 3.257 2.527 3.476 10.115a1 1 0 01-.97 1.028z"/><path d="M57.16 63.888a3.953 3.953 0 113.952-3.953 3.957 3.957 0 01-3.952 3.953zm0-5.906a1.953 1.953 0 101.952 1.953 1.955 1.955 0 00-1.952-1.953zm-41.078.002a1 1 0 01-1-.929c-.545-7.675 3.684-10.128 3.864-10.229a1 1 0 01.983 1.742c-.152.09-3.3 2.033-2.853 8.346a1 1 0 01-.927 1.068z"/><path d="M14.059 65.991a1 1 0 01-.8-.394 6.251 6.251 0 01-1.059-2.148 6.012 6.012 0 013.929-7.492 5.6 5.6 0 014.3.532 6.418 6.418 0 013.12 6.612 1 1 0 01-1.973-.328 4.422 4.422 0 00-2.126-4.54 3.619 3.619 0 00-2.778-.353 4.014 4.014 0 00-2.548 5.036 4.267 4.267 0 00.726 1.47 1 1 0 01-.795 1.605z"/><path d="M22.576 63.939c-.039 0-.079 0-.119-.006L21.33 63.8a1 1 0 01.236-1.987l1.127.134a1 1 0 01-.117 1.993zM14.059 66a1 1 0 01-.348-1.938l1.2-.443a1 1 0 01.7 1.875l-1.2.444a1 1 0 01-.352.062z"/></svg>