<svg width="22" height="24" xmlns="http://www.w3.org/2000/svg"><path d="M16.33 22.263c2.043-1.493 3.426-3.818 3.622-6.464 1.068-.317 1.848-1.296 1.848-2.45a2.54 2.54 0 00-.912-1.938V6.155c0-1.441-.74-2.789-1.953-3.596A3.473 3.473 0 0015.56 0H8.265C4.32 0 1.112 3.164 1.112 7.054v4.357A2.545 2.545 0 00.2 13.348c0 1.155.78 2.134 1.848 2.45.196 2.647 1.579 4.972 3.623 6.465.59.424 1.11.727 1.56.91.967.477 2.558.827 3.77.827 1.188 0 2.742-.367 3.826-.812.728-.383 1.23-.691 1.502-.925zM3.564 15.147c0-.42-.345-.76-.771-.76-.58 0-1.053-.466-1.053-1.039 0-.368.198-.702.529-.892.017-.01.032-.021.048-.032a1.06 1.06 0 01.476-.114H3.96c.726 0 1.367-.456 1.596-1.135l.531-1.57c1.812-.04 7.52-.29 10.728-1.871a.755.755 0 00.345-1.02.775.775 0 00-1.034-.34C12.686 8.071 5.6 8.093 5.529 8.093a.77.77 0 00-.73.52l-.705 2.082a.141.141 0 01-.134.095H2.794c-.047 0-.094.002-.141.005v-3.74c0-3.053 2.517-5.535 5.612-5.535h7.294c.966 0 1.778.687 1.93 1.633a.76.76 0 00.383.543c.91.506 1.475 1.448 1.475 2.459v5.644c0 .27.146.521.383.657.331.19.529.524.529.892 0 .573-.473 1.039-1.053 1.039-.426 0-.77.34-.77.76 0 4.043-3.336 7.332-7.436 7.332s-7.435-3.29-7.435-7.332zm9.744 3.021a.782.782 0 00-1.084.111c-.328.396-.763.613-1.225.613-.462 0-.897-.217-1.225-.613a.782.782 0 00-1.084-.11.743.743 0 00-.113 1.06c.617.744 1.5 1.171 2.422 1.171.922 0 1.805-.427 2.422-1.171a.743.743 0 00-.113-1.06zM7.835 12a.762.762 0 00-.771.754v.892c0 .416.345.754.77.754a.763.763 0 00.771-.754v-.892a.762.762 0 00-.77-.754zm6.336 0a.762.762 0 00-.771.754v.892c0 .416.345.754.77.754a.763.763 0 00.771-.754v-.892a.762.762 0 00-.77-.754z" fill="#2A2A2A"/></svg>