<svg width="18" height="20" xmlns="http://www.w3.org/2000/svg"><path d="M8.974 20c-2.76 0-4.484-1.22-4.446-1.243-3.375-.687-4.073-.925-4.143-.954a.625.625 0 01-.38-.652c.007-.058.361-3.4.361-8.446C.366 3.905 4.228 0 8.974 0s8.608 3.905 8.608 8.705c0 5.047.41 8.387.418 8.446a.622.622 0 01-.37.652c-.085.039-1.955 1.051-4.002.971C13.3 19.073 11.735 20 8.974 20zm0-1.25c.92.01 2.736-.174 3.8-1.044 1.034-.845 1.383-1.956 1.676-3.259.097-.434.15-.882.15-1.332 0-2.482-1.108-2.88-3.807-3.423-1.466-.294-3.104-.623-4.536-1.555-.61.954-1.961 2.659-3.823 2.659-.463 0-.84.38-.84.849 0 .468.377.849.84.849.339 0 .915.278.915.62 0 .45.053.899.15 1.333.293 1.303.625 2.404 1.659 3.249 1.064.87 2.896 1.044 3.816 1.054zM1.594 8.705c0 .342-.003.687-.009 1.034a2.03 2.03 0 01.849-.185c.888 0 1.662-.673 2.155-1.238a7.289 7.289 0 00.93-1.36.609.609 0 01.933-.206c1.32 1.07 2.977 1.402 4.58 1.724 2.505.503 4.797 1.023 4.797 4.64 0 .543-.062 1.302-.18 1.826-.236 1.053-.408 1.824-1.069 2.668 1.036-.103 1.574-.464 2.15-.796-.173-1.53-.376-3.843-.376-8.107 0-4.115-3.31-7.463-7.38-7.463s-7.38 3.348-7.38 7.463zm-.38 8.107c.68.233 1.334.63 2.277.769-.638-.832-.96-1.829-1.192-2.859a7.32 7.32 0 01-.16-1.075c-.143-.043-.58-.104-.709-.176-.162 2.611-.106 2.377-.215 3.34zm9.6-1.672a.605.605 0 00-.863.093c-.261.33-.608.51-.977.51-.368 0-.715-.18-.976-.51a.605.605 0 00-.864-.093.638.638 0 00-.09.884c.492.62 1.195.976 1.93.976.736 0 1.44-.356 1.931-.976a.638.638 0 00-.09-.884zm-4.43-4.135a.621.621 0 00-.614.628v.743c0 .347.275.629.614.629.34 0 .614-.282.614-.629v-.743a.621.621 0 00-.614-.628zm5.23 0a.621.621 0 00-.614.628v.743c0 .347.275.629.614.629.34 0 .614-.282.614-.629v-.743a.621.621 0 00-.614-.628z" fill="#2A2A2A"/></svg>