<svg xmlns="http://www.w3.org/2000/svg" width="4247.962" height="1359.568" viewBox="0 0 1199 384" xmlns:xlink="http://www.w3.org/1999/xlink" shape-rendering="geometricPrecision" text-rendering="geometricPrecision" image-rendering="optimizeQuality" fill-rule="evenodd" clip-rule="evenodd"><defs><style>.fil2{fill:none}.fil7{fill:#2b2a29}.fil0{fill:#e41d3d}.fil8{fill:#adbcc4}.fil1{fill:#13a0a4}.fil6{fill:#065253}.fil9{fill:#5c707c;fill-rule:nonzero}.fil5{fill:url(#id0)}.fil3{fill:url(#id1)}.fil4{fill:url(#id2)}</style><linearGradient id="id0" gradientUnits="userSpaceOnUse" x1="79.6" y1="75.398" x2="68.308" y2="54.694"><stop offset="0" stop-color="#e41d3d"/><stop offset="1" stop-color="#fefefe"/></linearGradient><linearGradient id="id1" gradientUnits="userSpaceOnUse" x1="41.018" y1="256.835" x2="54.946" y2="278.668"><stop offset="0" stop-color="#13a0a4"/><stop offset="1" stop-color="#065253"/></linearGradient><linearGradient id="id2" gradientUnits="userSpaceOnUse" xlink:href="#id1" x1="133.137" y1="194.838" x2="147.027" y2="219.185"/></defs><g id="Слой_x0020_2"><path class="fil0" d="M258 246l-77-36c-9-5-11-12-11-19V73l41 20c9 5 15 14 15 25v52l32 14v62zm104-85v117c0 3-1 6-4 8s-7 3-11 1l-74-34v-63l34 15v-52c0-4 2-7 5-9s7-3 10-1l40 18z"/><path class="fil1" d="M185 1l165 78c9 4 12 13 12 20v49l-70-32v68l-54-25V92l-68-35V11c0-8 8-13 15-10z"/><path class="fil3" d="M167 298l-79 45-76-38c-4-2-12-12-12-20V167l34-18c3-2 7-2 10 0 4 2 5 5 5 9v51l30-16v47c0 11 5 20 15 24l73 34z"/><path class="fil4" d="M170 73v118c0 7 2 14 10 18l78 37-78 45-73-35c-9-5-15-14-15-24v-46l30-17v-57c0-8 4-15 11-19l37-20z"/><path class="fil5" d="M6 96L174 2c-2 2-4 5-4 9v46l-60 34v69l-48 27v-70L0 152l1-45c0-6 1-9 5-11z"/><path class="fil6" d="M102 348l78-44 79 37-77 43-80-36zm91-51l80-44 74 34c3 2 6 2 9 0l-85 47-78-37z"/><path class="fil7" d="M0 152l62-35v38l-18-6-1-1c-3-1-6-1-8 0-1 0-1 0-1 1l-17 9-17-6z"/><path class="fil8" d="M43 148zm1 1c4 2 5 5 5 9v51l30-16-17-6v-32l-18-6zm35 44l13 5v34c0 10 6 19 15 24l60 28v14l-73-34c-10-4-15-13-15-24v-47z"/><path class="fil7" d="M62 187l48-27 12 5v4l-30 17v12l-13-5z"/><path class="fil8" d="M110 160l12 5v-53c0-6 2-11 6-15l-18-6v69z"/><path class="fil7" d="M110 91l60-34 68 35-20 6c-2-2-4-3-7-5l-41-20-37 20c-2 1-4 3-5 4l-18-6z"/><path class="fil8" d="M238 159V92l-20 6c5 5 8 12 8 19v46l12-4z"/><path class="fil2" d="M312 144l-20 6"/><path class="fil8" d="M292 150l20-6c-3 2-5 5-5 9v52l-34-15 19-6v-34z"/><path class="fil7" d="M292 116l70 32-16 5-24-10c-3-2-7-1-10 1l-20 6v-34z"/><path class="fil1" d="M258 195l15-5v63l-80 44v-14l65-37zM102 335l65-37v-14l13 7v-1 14l-78 44z"/><path class="fil8" d="M180 290l13-7v14l66 31v13l-79-37z"/><path class="fil7" d="M238 159l54 25-34 11v-11l-32-14v-7z"/><path class="fil9" d="M708 151v136h35V179h63v-28h-98zm460 94c-3 12-11 16-11 16-2 2-11 3-18 2-7 0-14-2-17-7-2-3-3-6-3-10v-50c0-12 6-23 22-23 2 0 15 0 16 1 8 4 10 6 13 17l29-6c-1-7-6-23-17-30-4-2-8-4-14-5-5-1-32-2-38-2-28 0-44 18-44 44v56c0 8 1 14 3 19 10 21 31 19 52 20 34 1 48-3 57-35l-30-7zm-340 42V152h48c29 0 64 4 62 44 0 15-9 31-18 37-5 3-10 6-14 6-7 2-16 2-29 2h-18v46h-31zm31-110v40h15c11 0 18 0 22-2 4-1 6-3 8-6 5-7 5-19-1-25-3-3-6-5-11-6-3-1-10-1-19-1h-14zm123 13c3-12 10-18 21-18 21 0 27 12 27 26v3h-11c-3 0-6 1-10 1-27 2-56 6-62 43-1 7 0 15 4 23 2 5 5 9 9 12l9 6c3 1 7 2 11 3 3 0 7 1 11 1 6 0 12-2 16-4 6-2 16-10 20-15 2-2 3-4 5-6v22h29v-98c0-25-19-41-50-41-28 0-55 5-62 36l33 6zm48 33v7c0 3 0 12-1 14 0 3-1 5-2 7s-1 3-2 4c-5 7-13 9-22 9-10 0-21-7-21-17-1-15 9-24 28-24h20zm-593-72v29h56c-11 6-16 14-16 23v84h35V180h39v-29H437zm165 39c3-12 10-18 21-18 21 0 27 12 27 26v3h-11c-3 0-6 1-9 1-28 2-57 6-63 43-1 7 0 15 4 23 2 5 5 9 9 12l9 6c4 1 7 2 11 3 3 0 7 1 11 1 6 0 12-2 16-4 6-2 16-10 20-15 2-2 4-4 5-6v22h29v-98c0-25-19-41-50-41-28 0-55 5-61 36l32 6zm48 33v7c0 3 0 12-1 14 0 3-1 5-2 7 0 2-1 3-2 4-5 7-13 9-21 9-11 0-22-7-22-17-1-15 9-24 28-24h20z"/></g></svg>