<svg width="80" height="80" viewBox="0 0 80 80" fill="none" xmlns="http://www.w3.org/2000/svg"><path d="M26.25 25v2.5c0 3.017 2.151 5.542 5 6.124V40c0 2.377.956 4.534 2.5 6.111v.139c.042 0 .083-.011.124-.013A8.722 8.722 0 0040 48.75c4.825 0 8.75-3.926 8.75-8.75V30a6.257 6.257 0 00-6.25-6.25h-15c-.69 0-1.25.559-1.25 1.25zM40 46.25a6.167 6.167 0 01-3.125-.87C38.734 44.296 40 42.302 40 40h-2.5c0 1.674-1.109 3.078-2.626 3.559A6.209 6.209 0 0133.75 40v-6.25h7.5c0 3.017 2.151 5.542 5 6.124V40A6.257 6.257 0 0140 46.25zm-11.25-20H42.5A3.755 3.755 0 0146.25 30v7.286a3.757 3.757 0 01-2.5-3.536V32.5c0-.691-.56-1.25-1.25-1.25h-10a3.755 3.755 0 01-3.75-3.75v-1.25z" fill="#fff"/><path d="M76.638 68.75A7.495 7.495 0 0080 62.5c0-4.136-3.364-7.5-7.5-7.5a7.498 7.498 0 00-6.25 3.362A7.495 7.495 0 0060 55a7.44 7.44 0 00-2.834.578c-.816-2.503-3.145-4.328-5.916-4.328H30.379l-6.909-4.606-5.197-10.394H20v-2.5h-5v-10.1a8.717 8.717 0 004.861-2.4h1.389A6.257 6.257 0 0027.5 15v-2.5c0-.691-.56-1.25-1.25-1.25H22.5V10c0-.691-.56-1.25-1.25-1.25h-15C5.56 8.75 5 9.309 5 10v1.25H1.25c-.69 0-1.25.559-1.25 1.25V15a6.257 6.257 0 006.25 6.25h1.389a8.721 8.721 0 004.861 2.4v10.1h-5v2.5h1.676l7.175 16.742c.089.208.232.388.414.52l2.165 1.574a7.502 7.502 0 00-5.18 3.278A7.496 7.496 0 007.5 55C3.364 55 0 58.364 0 62.5a7.498 7.498 0 003.362 6.25A7.498 7.498 0 000 75v5h2.5v-5c0-2.757 2.242-5 5-5s5 2.243 5 5v5H15v-5c0-2.757 2.242-5 5-5s5 2.243 5 5v5h2.5v-5a7.498 7.498 0 00-3.363-6.25A7.495 7.495 0 0027.5 62.5c0-.432-.045-.854-.115-1.266L30 63.136V78.75c0 .691.56 1.25 1.25 1.25h25c.69 0 1.25-.559 1.25-1.25v-8.066A4.94 4.94 0 0160 70c2.758 0 5 2.243 5 5v5h2.5v-5c0-2.757 2.243-5 5-5s5 2.243 5 5v5H80v-5a7.498 7.498 0 00-3.362-6.25zM25 13.75V15c0 1.926-1.465 3.499-3.336 3.709A8.68 8.68 0 0022.5 15v-1.25H25zM2.5 15v-1.25H5V15c0 1.326.305 2.58.836 3.709C3.965 18.499 2.5 16.926 2.5 15zm5 0v-3.75H20V15a6.257 6.257 0 01-6.25 6.25A6.257 6.257 0 017.5 15zm-5 47.5c0-2.758 2.242-5 5-5s5 2.242 5 5c0 2.757-2.242 5-5 5s-5-2.243-5-5zm11.25 8.362a7.554 7.554 0 00-2.113-2.112 7.554 7.554 0 002.113-2.112 7.554 7.554 0 002.113 2.112 7.554 7.554 0 00-2.113 2.112zM20 67.5c-2.758 0-5-2.243-5-5 0-2.758 2.242-5 5-5s5 2.242 5 5c0 2.757-2.242 5-5 5zm52.5-10c2.757 0 5 2.242 5 5 0 2.757-2.243 5-5 5s-5-2.243-5-5c0-2.758 2.243-5 5-5zm-7.5 5c0 2.757-2.242 5-5 5a4.952 4.952 0 01-2.5-.683v-8.634A4.952 4.952 0 0160 57.5c2.758 0 5 2.242 5 5zm-26.25-3.345l-1.965-5.405h1.965v5.405zm2.5-5.405h1.965l-1.965 5.405V53.75zM55 77.5h-5V60h-2.5v17.5h-15v-15c0-.4-.191-.775-.515-1.011L18.512 51.69l-6.616-15.44h3.581l5.905 11.809c.098.194.244.36.425.481l7.5 5c.204.136.447.21.693.21h4.124l4.701 12.927a1.251 1.251 0 002.35 0l4.701-12.927h5.374A3.755 3.755 0 0155 57.5v20zm11.25-6.638a7.556 7.556 0 00-2.112-2.112 7.556 7.556 0 002.112-2.112 7.556 7.556 0 002.112 2.112 7.556 7.556 0 00-2.112 2.112zM33.75 10h2.5V6.25H40v-2.5h-3.75V0h-2.5v3.75H30v2.5h3.75V10z" fill="#fff"/></svg>