<svg width="80" height="80" viewBox="0 0 80 80" fill="none" xmlns="http://www.w3.org/2000/svg"><g clip-path="url(#clip0)" fill="#fff"><path d="M48.236 66.666a4.672 4.672 0 00-4.667 4.667A4.672 4.672 0 0048.235 76a4.672 4.672 0 004.667-4.667 4.673 4.673 0 00-4.666-4.666zm0 6.667c-1.103 0-2-.897-2-2 0-1.102.897-2 2-2 1.102 0 2 .898 2 2 0 1.103-.898 2-2 2zm6-24a5.339 5.339 0 005.333-5.334 5.339 5.339 0 00-5.333-5.333 5.339 5.339 0 00-5.334 5.333 5.338 5.338 0 005.334 5.334zm0-8a2.67 2.67 0 012.666 2.666 2.67 2.67 0 01-2.666 2.667A2.67 2.67 0 0151.569 44a2.67 2.67 0 012.667-2.666zM22.235 15.999c.341 0 .683-.13.943-.39l2.666-2.667a1.332 1.332 0 000-1.886 1.332 1.332 0 00-1.885 0l-2.667 2.667a1.332 1.332 0 00.943 2.276z"/><path d="M70.236 39.663a4.363 4.363 0 00-1.287-3.105l-.742-.743a5.99 5.99 0 002.028-4.482c0-3.308-2.692-6-6-6-.243 0-.483.023-.72.053.029-.239.053-.476.053-.72 0-3.308-2.692-6-6-6-.243 0-.483.024-.72.053.029-.239.053-.476.053-.72 0-3.308-2.692-6-6-6-.243 0-.483.024-.72.053.03-.238.053-.476.053-.72 0-3.308-2.692-6-6-6a5.992 5.992 0 00-4.483 2.028l-1.058-1.059-5.018-5.017a4.395 4.395 0 00-6.21 0L11.047 17.7a4.401 4.401 0 000 6.212l5.018 5.018 6.546 6.547c-1.808 1.034-3.044 2.961-3.044 5.189a5.997 5.997 0 002.69 4.998c.081.108.176.214.302.322l14.342 14.287v2.395h-2.667V80h34.668V62.668h-2.667v-4.04c2.55-2.162 4-5.27 4-8.629a11.3 11.3 0 00-2.048-6.469l.761-.761a4.363 4.363 0 001.287-3.106zm-2.667-8.33a3.33 3.33 0 01-1.25 2.596l-4.68-4.682a3.331 3.331 0 012.595-1.25 3.34 3.34 0 013.335 3.335zm-6.667-6.667a3.33 3.33 0 01-1.249 2.596l-4.681-4.682a3.332 3.332 0 012.596-1.249 3.34 3.34 0 013.334 3.335zm-6.666-6.667a3.33 3.33 0 01-1.25 2.596l-4.681-4.681a3.332 3.332 0 012.596-1.25A3.34 3.34 0 0154.236 18zm-10-10a3.336 3.336 0 013.333 3.333 3.33 3.33 0 01-1.25 2.596l-4.681-4.681a3.335 3.335 0 012.597-1.248zm-31.302 14.03a1.73 1.73 0 010-2.442L29.35 3.171c.166-.167.361-.292.568-.376.093-.039.198-.038.297-.059a1.7 1.7 0 01.71 0c.098.021.203.02.297.059.206.084.4.21.568.376l3.132 3.132-18.856 18.856-3.132-3.13zm23.873-13.84l1.571 1.57 6.667 6.667.764.764 5.903 5.902.764.764 5.902 5.903.764.764 6.667 6.667 1.254 1.253a1.726 1.726 0 010 2.44l-.583.584-15.833 15.834a1.728 1.728 0 01-2.44 0L37.572 46.666H38.9c3.308 0 6-2.692 6-6s-2.692-6-6-6H25.57l-7.621-7.621L36.807 8.188zM24.848 37.414l.554-.062c.054-.008.11-.02.165-.02h13.334a3.336 3.336 0 013.333 3.333 3.336 3.336 0 01-3.333 3.333H25.567a3.336 3.336 0 01-3.333-3.333 3.339 3.339 0 012.614-3.25zm12.054 39.918v-12h11.235c4.097 0 7.432 3.335 7.432 7.432v4.568H36.902zm29.334 0h-8v-4.568c0-2.941-1.272-5.584-3.286-7.432h11.286v12zm.033-31.883a8.625 8.625 0 011.3 4.55c0 2.74-1.264 5.26-3.47 6.921l-.53.4v5.345H39.567v-3.624l-.47-.398c-.06-.052-.124-.1-.24-.187L27.02 46.665h6.78l12.52 12.52a4.382 4.382 0 003.105 1.284 4.38 4.38 0 003.107-1.284L66.269 45.45z"/></g><defs><clipPath id="clip0"><path fill="#fff" d="M0 0h80v80H0z"/></clipPath></defs></svg>