<svg width="40" height="48" viewBox="0 0 40 48" fill="none" xmlns="http://www.w3.org/2000/svg"><path d="M0 12l10-6 10 6-10 6-10-6zm20 0l10-6 10 6-10 6-10-6zM10 30l10-6 10 6-10 6-10-6z" fill="#007800"/><path d="M10 6l10-6 10 6-10 6-10-6z" fill="#007800"/><path d="M0 12l10 6v12L0 24V12zm20 0l10 6v12l-10-6V12z" fill="#0A9A0A"/><path d="M0 24l10 6v12L0 36V24zm10 6l10 6v12l-10-6V30z" fill="#0A9A0A"/><path d="M20 12l-10 6v12l10-6V12zm20 0l-10 6v12l10-6V12z" fill="#004500"/><path d="M40 24l-10 6v12l10-6V24zm-10 6l-10 6v12l10-6V30z" fill="#004500"/></svg>