<?xml version="1.0" encoding="UTF-8"?>
<!DOCTYPE svg PUBLIC "-//W3C//DTD SVG 1.1//EN" "http://www.w3.org/Graphics/SVG/1.1/DTD/svg11.dtd">
<!-- Creator: CorelDRAW X8 -->
<svg xmlns="http://www.w3.org/2000/svg" xml:space="preserve" width="1123.94mm" height="359.719mm" version="1.1" style="shape-rendering:geometricPrecision; text-rendering:geometricPrecision; image-rendering:optimizeQuality; fill-rule:evenodd; clip-rule:evenodd"
viewBox="0 0 1199 384"
 xmlns:xlink="http://www.w3.org/1999/xlink">
 <defs>
  <style type="text/css">
   <![CDATA[
    .fil2 {fill:none}
    .fil7 {fill:#2B2A29}
    .fil0 {fill:#E41D3D}
    .fil8 {fill:#ADBCC4}
    .fil1 {fill:#13A0A4}
    .fil6 {fill:#065253}
    .fil9 {fill:#5C707C;fill-rule:nonzero}
    .fil5 {fill:url(#id0)}
    .fil3 {fill:url(#id1)}
    .fil4 {fill:url(#id2)}
   ]]>
  </style>
  <linearGradient id="id0" gradientUnits="userSpaceOnUse" x1="79.6005" y1="75.3976" x2="68.3078" y2="54.6942">
   <stop offset="0" style="stop-opacity:1; stop-color:#E41D3D"/>
   <stop offset="1" style="stop-opacity:1; stop-color:#FEFEFE"/>
  </linearGradient>
  <linearGradient id="id1" gradientUnits="userSpaceOnUse" x1="41.0182" y1="256.835" x2="54.9459" y2="278.668">
   <stop offset="0" style="stop-opacity:1; stop-color:#13A0A4"/>
   <stop offset="1" style="stop-opacity:1; stop-color:#065253"/>
  </linearGradient>
  <linearGradient id="id2" gradientUnits="userSpaceOnUse" xlink:href="#id1" x1="133.137" y1="194.838" x2="147.027" y2="219.185">
  </linearGradient>
 </defs>
 <g id="Слой_x0020_2">
  <metadata id="CorelCorpID_0Corel-Layer"/>
  <path class="fil0" d="M258 246l-77 -36c-9,-5 -11,-12 -11,-19l0 -118 41 20c9,5 15,14 15,25l0 52 32 14 0 62z"/>
  <path class="fil0" d="M362 161l0 117c0,3 -1,6 -4,8 -3,2 -7,3 -11,1l-74 -34 0 -63 34 15 0 -52c0,-4 2,-7 5,-9 3,-2 7,-3 10,-1l40 18z"/>
  <path class="fil1" d="M185 1l165 78c9,4 12,13 12,20l0 49 -70 -32 0 68 -54 -25 0 -67 -68 -35 0 -46c0,-8 8,-13 15,-10z"/>
  <polygon class="fil2" points="177,1 177,1 177,1 "/>
  <path class="fil3" d="M167 298l-79 45 -76 -38c-4,-2 -12,-12 -12,-20l0 -118 34 -18c3,-2 7,-2 10,0 4,2 5,5 5,9l0 37 0 4 0 10 30 -16 0 47c0,11 5,20 15,24l73 34z"/>
  <path class="fil4" d="M170 73l0 118c0,7 2,14 10,18l78 37 -78 45 -73 -35c-9,-5 -15,-14 -15,-24l0 -46 30 -17 0 -6 0 -10 0 -41c0,-8 4,-15 11,-19l37 -20z"/>
  <path class="fil5" d="M6 96l168 -94c-2,2 -4,5 -4,9l0 46 -60 34c0,23 0,46 0,69l-48 27c0,-23 0,-46 0,-70l-62 35 1 -45c0,-6 1,-9 5,-11z"/>
  <path class="fil6" d="M102 348l78 -44 79 37 -77 43 -80 -36zm91 -51l80 -44 74 34c3,2 6,2 9,0l-85 47 -78 -37z"/>
  <path class="fil7" d="M0 152l62 -35 0 38 -18 -6c0,0 -1,-1 -1,-1 -3,-1 -6,-1 -8,0 -1,0 -1,0 -1,1l-17 9 -17 -6z"/>
  <path class="fil8" d="M43 148l0 0 0 0 0 0zm1 1l0 0c4,2 5,5 5,9l0 37 0 4 0 10 30 -16 -17 -6 0 -32 -18 -6z"/>
  <path class="fil8" d="M79 193l13 5 0 34c0,10 6,19 15,24l60 28 0 14 -73 -34c-10,-4 -15,-13 -15,-24l0 -8 0 -39z"/>
  <polygon class="fil7" points="62,187 110,160 122,165 122,169 92,186 92,198 79,193 "/>
  <path class="fil8" d="M110 160l12 5 0 -53 0 0c0,-6 2,-11 6,-15l0 0 -18 -6 0 69z"/>
  <path class="fil7" d="M110 91l60 -34 68 35 -20 6 0 0c-2,-2 -4,-3 -7,-5l-41 -20 -37 20c-2,1 -4,3 -5,4l-18 -6z"/>
  <path class="fil8" d="M238 159l0 -67 -20 6 0 0c5,5 8,12 8,19l0 0 0 0c0,0 0,0 0,1l0 45 12 -4z"/>
  <line class="fil2" x1="312" y1="144" x2="292" y2= "150" />
  <path class="fil8" d="M292 150l20 -6c-3,2 -5,5 -5,9l0 52 -34 -15 19 -6 0 -34z"/>
  <path class="fil7" d="M292 116l70 32 -16 5 -24 -10c-3,-2 -7,-1 -10,1l-20 6 0 -34z"/>
  <polygon class="fil1" points="258,195 273,190 273,253 193,297 193,283 258,246 "/>
  <polygon class="fil1" points="102,335 167,298 167,284 180,291 180,290 180,304 102,348 "/>
  <polygon class="fil8" points="180,290 193,283 193,297 259,328 259,341 180,304 "/>
  <polygon class="fil7" points="238,159 292,184 258,195 258,184 226,170 226,163 "/>
  <path class="fil9" d="M708 151l0 136 35 0 0 -108 63 0 0 -28 -98 0zm460 94c-3,12 -11,16 -11,16 -2,2 -11,3 -18,2 -7,0 -14,-2 -17,-7 -2,-3 -3,-6 -3,-10l0 -50c0,-12 6,-23 22,-23 2,0 15,0 16,1 8,4 10,6 13,17l29 -6c-1,-7 -6,-23 -17,-30 -4,-2 -8,-4 -14,-5 -5,-1 -32,-2 -38,-2 -28,0 -44,18 -44,44l0 56c0,8 1,14 3,19 10,21 31,19 52,20 34,1 48,-3 57,-35l-30 -7zm-340 42l0 -135 48 0c29,0 64,4 62,44 0,15 -9,31 -18,37 -5,3 -10,6 -14,6 -7,2 -16,2 -29,2l-18 0 0 46 -31 0zm31 -110l0 40 15 0c11,0 18,0 22,-2 4,-1 6,-3 8,-6 5,-7 5,-19 -1,-25 -3,-3 -6,-5 -11,-6 -3,-1 -10,-1 -19,-1l-14 0zm123 13c3,-12 10,-18 21,-18 21,0 27,12 27,26l0 3 -11 0c-3,0 -6,1 -10,1 -27,2 -56,6 -62,43 -1,7 0,15 4,23 2,5 5,9 9,12 3,2 6,4 9,6 3,1 7,2 11,3 3,0 7,1 11,1 6,0 12,-2 16,-4 6,-2 16,-10 20,-15 2,-2 3,-4 5,-6l0 22 29 0 0 -73c0,-3 0,-21 0,-25 0,-25 -19,-41 -50,-41 -28,0 -55,5 -62,36l33 6zm48 33l0 7c0,3 0,12 -1,14 0,3 -1,5 -2,7 -1,2 -1,3 -2,4 -5,7 -13,9 -22,9 -10,0 -21,-7 -21,-17 -1,-15 9,-24 28,-24l20 0zm-593 -72l0 29 56 0c-11,6 -16,14 -16,23l0 84 35 0 0 -107 39 0 0 -29 -114 0zm165 39c3,-12 10,-18 21,-18 21,0 27,12 27,26l0 3 -11 0c-3,0 -6,1 -9,1 -28,2 -57,6 -63,43 -1,7 0,15 4,23 2,5 5,9 9,12 3,2 6,4 9,6 4,1 7,2 11,3 3,0 7,1 11,1 6,0 12,-2 16,-4 6,-2 16,-10 20,-15 2,-2 4,-4 5,-6l0 22 29 0 0 -73c0,-3 0,-21 0,-25 0,-25 -19,-41 -50,-41 -28,0 -55,5 -61,36l32 6zm48 33l0 7c0,3 0,12 -1,14 0,3 -1,5 -2,7 0,2 -1,3 -2,4 -5,7 -13,9 -21,9 -11,0 -22,-7 -22,-17 -1,-15 9,-24 28,-24l20 0z"/>
 </g>
</svg>
